<svg width="320" height="248" viewBox="0 0 320 248" fill="none" xmlns="http://www.w3.org/2000/svg">
<g opacity="0.5" clip-path="url(#clip0_967_14596)">
<path d="M32.2997 232.211C33.6282 232.678 35.0546 232.795 36.4414 232.55C37.8282 232.306 39.1287 231.709 40.2177 230.816C42.991 228.488 43.8606 224.654 44.5679 221.104L46.6605 210.601L42.2795 213.617C39.1287 215.787 35.9072 218.026 33.7258 221.168C31.5444 224.31 30.5928 228.6 32.3449 232" fill="#E6E6E6"/>
<path d="M32.976 245.657C32.4246 241.64 31.8572 237.571 32.245 233.51C32.5885 229.904 33.6888 226.383 35.9286 223.494C37.1175 221.964 38.5642 220.653 40.2036 219.62C40.631 219.35 41.0245 220.027 40.5989 220.296C37.7622 222.089 35.5681 224.736 34.3329 227.856C32.9687 231.326 32.7496 235.108 32.9846 238.794C33.1266 241.023 33.4285 243.237 33.7316 245.449C33.7555 245.549 33.7406 245.654 33.6898 245.743C33.639 245.833 33.5561 245.9 33.458 245.93C33.3578 245.957 33.2511 245.944 33.1609 245.892C33.0707 245.841 33.0044 245.757 32.9763 245.657L32.976 245.657Z" fill="#F2F2F2"/>
<path d="M36.9453 239.211C37.515 240.077 38.2981 240.782 39.2193 241.258C40.1405 241.733 41.1686 241.964 42.2046 241.927C44.8677 241.8 47.0869 239.942 49.0845 238.178L54.9942 232.96L51.0831 232.773C48.2704 232.638 45.3852 232.512 42.7062 233.38C40.0272 234.249 37.5565 236.335 37.0667 239.108" fill="#E6E6E6"/>
<path d="M31.4172 247.966C34.072 243.269 37.1509 238.049 42.6531 236.38C44.1828 235.918 45.7868 235.752 47.3787 235.892C47.8805 235.935 47.7552 236.709 47.2544 236.666C44.5859 236.444 41.9226 237.149 39.7127 238.661C37.5862 240.108 35.9304 242.121 34.5291 244.255C33.6707 245.562 32.9018 246.924 32.1329 248.285C31.8872 248.72 31.1687 248.406 31.4172 247.966Z" fill="#F2F2F2"/>
<path d="M298.28 237.803C297.507 238.495 296.57 238.976 295.558 239.2C294.546 239.425 293.493 239.385 292.501 239.084C289.959 238.281 288.288 235.918 286.808 233.701L282.428 227.146L286.257 227.965C289.01 228.554 291.832 229.169 294.2 230.693C296.568 232.217 298.424 234.866 298.189 237.672" fill="#E6E6E6"/>
<path d="M301.386 247.68C300.02 242.46 298.378 236.627 293.485 233.607C292.124 232.769 290.616 232.199 289.041 231.928C288.544 231.841 288.468 232.621 288.963 232.707C291.6 233.175 293.994 234.537 295.744 236.564C297.43 238.507 298.517 240.875 299.326 243.296C299.822 244.78 300.217 246.294 300.613 247.806C300.739 248.289 301.514 248.169 301.386 247.68Z" fill="#F2F2F2"/>
<path d="M247.588 171.243H158.082C157.367 171.242 156.682 170.958 156.176 170.453C155.671 169.947 155.387 169.262 155.386 168.547V138.352C155.387 137.637 155.671 136.952 156.176 136.447C156.682 135.941 157.367 135.657 158.082 135.656H247.588C248.303 135.657 248.988 135.941 249.494 136.447C249.999 136.952 250.283 137.637 250.284 138.352V168.547C250.283 169.262 249.999 169.947 249.494 170.453C248.988 170.958 248.303 171.242 247.588 171.243Z" fill="#F1F1F1"/>
<path d="M193.129 143.744H169.405V146.44H193.129V143.744Z" fill="#3931D8"/>
<path d="M224.403 146.979C225.296 146.979 226.02 146.255 226.02 145.362C226.02 144.468 225.296 143.744 224.403 143.744C223.509 143.744 222.785 144.468 222.785 145.362C222.785 146.255 223.509 146.979 224.403 146.979Z" fill="#3931D8"/>
<path d="M229.795 146.979C230.688 146.979 231.412 146.255 231.412 145.362C231.412 144.468 230.688 143.744 229.795 143.744C228.901 143.744 228.177 144.468 228.177 145.362C228.177 146.255 228.901 146.979 229.795 146.979Z" fill="#3931D8"/>
<path d="M235.187 146.979C236.08 146.979 236.804 146.255 236.804 145.362C236.804 144.468 236.08 143.744 235.187 143.744C234.294 143.744 233.569 144.468 233.569 145.362C233.569 146.255 234.294 146.979 235.187 146.979Z" fill="#3931D8"/>
<path d="M247.588 209.526H158.082C157.367 209.526 156.682 209.241 156.176 208.736C155.671 208.23 155.387 207.545 155.386 206.83V176.635C155.387 175.921 155.671 175.235 156.176 174.73C156.682 174.225 157.367 173.94 158.082 173.939H247.588C248.303 173.94 248.988 174.225 249.494 174.73C249.999 175.235 250.283 175.921 250.284 176.635V206.83C250.283 207.545 249.999 208.23 249.494 208.736C248.988 209.241 248.303 209.526 247.588 209.526Z" fill="#F1F1F1"/>
<path d="M193.129 182.027H169.405V184.723H193.129V182.027Z" fill="#3931D8"/>
<path d="M224.403 185.263C225.296 185.263 226.02 184.538 226.02 183.645C226.02 182.752 225.296 182.027 224.403 182.027C223.509 182.027 222.785 182.752 222.785 183.645C222.785 184.538 223.509 185.263 224.403 185.263Z" fill="#3931D8"/>
<path d="M229.795 185.263C230.688 185.263 231.412 184.538 231.412 183.645C231.412 182.752 230.688 182.027 229.795 182.027C228.901 182.027 228.177 182.752 228.177 183.645C228.177 184.538 228.901 185.263 229.795 185.263Z" fill="#3931D8"/>
<path d="M235.187 185.263C236.08 185.263 236.804 184.538 236.804 183.645C236.804 182.752 236.08 182.027 235.187 182.027C234.294 182.027 233.569 182.752 233.569 183.645C233.569 184.538 234.294 185.263 235.187 185.263Z" fill="#3931D8"/>
<path d="M247.588 247.809H158.082C157.367 247.808 156.682 247.523 156.176 247.018C155.671 246.513 155.387 245.827 155.386 245.113V214.918C155.387 214.203 155.671 213.518 156.176 213.012C156.682 212.507 157.367 212.223 158.082 212.222H247.588C248.303 212.222 248.988 212.507 249.494 213.012C249.999 213.518 250.283 214.203 250.284 214.918V245.113C250.283 245.827 249.999 246.513 249.494 247.018C248.988 247.523 248.303 247.808 247.588 247.809Z" fill="#F1F1F1"/>
<path d="M193.129 220.31H169.405V223.006H193.129V220.31Z" fill="#3931D8"/>
<path d="M224.403 223.545C225.296 223.545 226.02 222.821 226.02 221.927C226.02 221.034 225.296 220.31 224.403 220.31C223.509 220.31 222.785 221.034 222.785 221.927C222.785 222.821 223.509 223.545 224.403 223.545Z" fill="#3931D8"/>
<path d="M229.795 223.545C230.688 223.545 231.412 222.821 231.412 221.927C231.412 221.034 230.688 220.31 229.795 220.31C228.901 220.31 228.177 221.034 228.177 221.927C228.177 222.821 228.901 223.545 229.795 223.545Z" fill="#3931D8"/>
<path d="M235.187 223.545C236.08 223.545 236.804 222.821 236.804 221.927C236.804 221.034 236.08 220.31 235.187 220.31C234.294 220.31 233.569 221.034 233.569 221.927C233.569 222.821 234.294 223.545 235.187 223.545Z" fill="#3931D8"/>
<path d="M213.845 106.171L213.746 106.098L213.744 106.096C213.616 106.001 213.471 105.933 213.317 105.894C213.163 105.855 213.002 105.847 212.845 105.87C212.688 105.894 212.537 105.948 212.4 106.029C212.264 106.111 212.145 106.219 212.05 106.346L191.903 133.472H189.686V132.951C189.686 132.823 189.635 132.7 189.545 132.609C189.454 132.518 189.331 132.467 189.202 132.467H187.88C187.751 132.467 187.628 132.518 187.537 132.609C187.446 132.7 187.395 132.823 187.395 132.951V133.472H186.63V132.951C186.63 132.823 186.579 132.7 186.488 132.609C186.397 132.518 186.274 132.467 186.145 132.467H184.823C184.694 132.467 184.571 132.518 184.48 132.609C184.39 132.7 184.339 132.823 184.339 132.951V133.472H183.576V132.951C183.576 132.823 183.525 132.7 183.434 132.609C183.343 132.518 183.22 132.467 183.091 132.467H181.769C181.64 132.467 181.517 132.518 181.426 132.609C181.335 132.7 181.284 132.823 181.284 132.951V133.472H180.519V132.951C180.519 132.823 180.468 132.7 180.377 132.609C180.286 132.518 180.163 132.467 180.035 132.467H178.712C178.584 132.467 178.46 132.518 178.37 132.609C178.279 132.7 178.228 132.823 178.228 132.951V133.472H177.465V132.951C177.465 132.823 177.414 132.7 177.323 132.609C177.232 132.518 177.109 132.467 176.98 132.467H175.658C175.594 132.467 175.531 132.48 175.473 132.504C175.414 132.528 175.36 132.564 175.315 132.609C175.27 132.654 175.235 132.707 175.21 132.766C175.186 132.825 175.174 132.888 175.174 132.951V133.472H174.408V132.951C174.408 132.823 174.357 132.7 174.266 132.609C174.175 132.518 174.052 132.467 173.924 132.467H172.601C172.473 132.467 172.35 132.518 172.259 132.609C172.168 132.7 172.117 132.823 172.117 132.951V133.472H171.352V132.951C171.351 132.823 171.3 132.7 171.21 132.609C171.119 132.518 170.996 132.467 170.867 132.467H169.545C169.416 132.467 169.293 132.518 169.202 132.609C169.111 132.7 169.06 132.823 169.06 132.951V133.472H168.297V132.951C168.297 132.823 168.246 132.7 168.155 132.609C168.065 132.518 167.941 132.467 167.813 132.467H166.49C166.362 132.467 166.239 132.518 166.148 132.609C166.057 132.7 166.006 132.823 166.006 132.951V133.472H165.241V132.951C165.241 132.823 165.19 132.7 165.099 132.609C165.008 132.518 164.885 132.467 164.756 132.467H163.434C163.305 132.467 163.182 132.518 163.091 132.609C163 132.7 162.949 132.823 162.949 132.951V133.472H162.186V132.951C162.186 132.823 162.135 132.7 162.045 132.609C161.954 132.518 161.831 132.467 161.702 132.467H160.38C160.251 132.467 160.128 132.518 160.037 132.609C159.946 132.7 159.895 132.823 159.895 132.951V133.472H158.936C158.777 133.472 158.62 133.503 158.473 133.564C158.326 133.625 158.192 133.714 158.08 133.827C157.967 133.939 157.878 134.073 157.817 134.22C157.756 134.367 157.725 134.524 157.725 134.683V135.839C157.725 135.998 157.756 136.155 157.817 136.302C157.878 136.449 157.967 136.582 158.08 136.695C158.192 136.807 158.326 136.897 158.473 136.957C158.62 137.018 158.777 137.05 158.936 137.05H191.702C192.117 137.049 192.519 136.906 192.841 136.644C193.163 136.382 193.385 136.018 193.469 135.611L193.481 135.621L214.094 107.868L214.096 107.865C214.287 107.608 214.368 107.284 214.321 106.966C214.274 106.649 214.103 106.363 213.845 106.171Z" fill="#3F3D56"/>
<path d="M86.52 237.523L90.5899 239.605L100.56 224.898L94.5535 221.824L86.52 237.523Z" fill="#FFB7B7"/>
<path d="M86.1618 235.663L94.177 239.765L94.1773 239.765C95.5319 240.458 96.5556 241.661 97.0233 243.11C97.4909 244.558 97.3642 246.132 96.671 247.487L96.586 247.653L83.4629 240.937L86.1618 235.663Z" fill="#2F2E41"/>
<path d="M133.525 243.22H138.097L140.272 225.586H133.524L133.525 243.22Z" fill="#FFB7B7"/>
<path d="M132.359 241.728L141.363 241.728H141.363C142.885 241.728 144.345 242.332 145.421 243.408C146.497 244.484 147.101 245.944 147.101 247.465V247.652L132.36 247.652L132.359 241.728Z" fill="#2F2E41"/>
<path d="M112.14 99.3806C112.14 99.3806 109.078 97.0351 109.078 102.764L108.595 121.698L113.993 139.584L117.135 133.783L115.846 121.214L112.14 99.3806Z" fill="#2F2E41"/>
<path d="M144.89 151.166C144.89 151.166 148.44 168.456 143.943 182.645L141.458 237.2L132.346 236.49L129.151 196.017L126.074 175.899L119.683 194.242L98.6189 233.058L88.915 225.484C88.915 225.484 99.6685 196.142 107.613 189.982L111.597 144.603L144.89 151.166Z" fill="#2F2E41"/>
<path d="M143.205 70.8584C145.957 65.8234 144.107 59.5105 139.072 56.7582C134.037 54.0058 127.724 55.8562 124.972 60.8912C122.22 65.9262 124.07 72.239 129.105 74.9914C134.14 77.7438 140.453 75.8933 143.205 70.8584Z" fill="#FFB7B7"/>
<path d="M133.354 68.0781C134.599 68.2401 135.538 66.9658 135.974 65.7878C136.41 64.6099 136.742 63.2385 137.825 62.6022C139.304 61.7328 141.197 62.7784 142.889 62.4916C144.799 62.1677 146.042 60.1429 146.139 58.2075C146.236 56.2721 145.466 54.4107 144.711 52.6263L144.447 54.8439C144.482 54.0923 144.324 53.3442 143.987 52.6712C143.651 51.9982 143.147 51.4228 142.525 51L142.865 54.254C142.793 53.805 142.632 53.3748 142.393 52.988C142.154 52.6012 141.841 52.2654 141.472 51.9998C141.103 51.7343 140.685 51.5443 140.242 51.4407C139.799 51.3372 139.34 51.322 138.892 51.3962L138.945 53.3351C136.739 53.0727 134.513 52.8099 132.299 53.0098C130.086 53.2097 127.858 53.91 126.18 55.3676C123.671 57.5479 122.755 61.138 123.062 64.4479C123.37 67.7577 124.736 70.8671 126.16 73.8708C126.518 74.6265 127.014 75.4793 127.845 75.5756C128.591 75.6621 129.274 75.0381 129.506 74.3233C129.685 73.59 129.678 72.8236 129.486 72.0936C129.276 70.9779 129.012 69.8376 129.209 68.7197C129.406 67.6018 130.211 66.4971 131.338 66.3601C132.464 66.2231 133.618 67.5112 133.076 68.5088L133.354 68.0781Z" fill="#2F2E41"/>
<path d="M145.533 155.79L110.851 153.552L113.462 142.737L145.159 149.823L145.533 155.79Z" fill="#CBCBCB"/>
<path d="M124.144 80.0436L126.32 77.0234C126.32 77.0234 128.751 77.8497 135.263 81.0909L135.723 83.9205L147.026 153.441L126.481 152.554L120.886 152.435L119.055 148.331L116.798 152.348L111.334 152.232L105.775 149.009L111.254 132.251L113.026 116.944L110.287 102.522C110.287 102.522 106.84 89.2789 120.116 82.1383L124.144 80.0436Z" fill="#2F2E41"/>
<path d="M170.451 132.671C169.948 132.799 169.423 132.815 168.913 132.717C168.403 132.62 167.92 132.413 167.499 132.109C167.078 131.805 166.729 131.413 166.476 130.96C166.223 130.507 166.073 130.003 166.035 129.486L153.846 126.221L158.749 121.867L169.572 125.635C170.446 125.63 171.292 125.945 171.949 126.522C172.606 127.098 173.029 127.895 173.137 128.763C173.245 129.63 173.032 130.507 172.537 131.227C172.041 131.947 171.299 132.461 170.451 132.671Z" fill="#FFB7B7"/>
<path d="M164.991 130.828C164.735 130.967 164.452 131.051 164.161 131.074C163.87 131.098 163.578 131.059 163.303 130.962L143.252 123.352C138.36 121.618 134.265 118.166 131.728 113.638L123.366 98.7223C122.779 98.0668 122.327 97.3021 122.035 96.4717C121.744 95.6414 121.62 94.7617 121.669 93.8832C121.718 93.0046 121.94 92.1443 122.321 91.3516C122.703 90.5588 123.238 89.8491 123.894 89.2632C124.551 88.6772 125.316 88.2265 126.147 87.9367C126.978 87.647 127.858 87.5239 128.736 87.5746C129.615 87.6252 130.475 87.8486 131.267 88.232C132.059 88.6153 132.768 89.1511 133.352 89.8086L147.825 112.748L166.039 123.426C166.396 123.66 166.672 123.998 166.831 124.395C166.989 124.791 167.022 125.227 166.925 125.643L166.019 129.481C165.922 129.892 165.702 130.264 165.387 130.547C165.267 130.656 165.134 130.75 164.991 130.828Z" fill="#2F2E41"/>
<path d="M319.661 248.418H0.338624C0.248816 248.418 0.162685 248.383 0.0991805 248.319C0.0356761 248.256 0 248.17 0 248.08C0 247.99 0.0356761 247.904 0.0991805 247.84C0.162685 247.777 0.248816 247.741 0.338624 247.741H319.661C319.751 247.741 319.837 247.777 319.901 247.84C319.964 247.904 320 247.99 320 248.08C320 248.17 319.964 248.256 319.901 248.319C319.837 248.383 319.751 248.418 319.661 248.418Z" fill="#CBCBCB"/>
</g>
<defs>
<clipPath id="clip0_967_14596">
<rect width="320" height="248" fill="white"/>
</clipPath>
</defs>
</svg>
