<?xml version="1.0" encoding="UTF-8"?>
<!DOCTYPE svg PUBLIC "-//W3C//DTD SVG 1.1//EN" "http://www.w3.org/Graphics/SVG/1.1/DTD/svg11.dtd">
<svg xmlns="http://www.w3.org/2000/svg" version="1.1" width="1280px" height="766px" style="shape-rendering:geometricPrecision; text-rendering:geometricPrecision; image-rendering:optimizeQuality; fill-rule:evenodd; clip-rule:evenodd" xmlns:xlink="http://www.w3.org/1999/xlink">
<g><path style="opacity:0.993" fill="#242e3d" d="M 1072.5,3.5 C 1104.61,2.6349 1135.94,7.1349 1166.5,17C 1175.06,19.9455 1183.06,23.9455 1190.5,29C 1198.81,37.0554 1201.81,46.8887 1199.5,58.5C 1199.6,64.9109 1199.1,71.2442 1198,77.5C 1197.22,79.286 1196.05,80.786 1194.5,82C 1190.83,82.6667 1187.17,82.6667 1183.5,82C 1141.94,62.2211 1098.6,56.8878 1053.5,66C 1025.03,74.4453 1013.53,93.2787 1019,122.5C 1024.81,136.308 1034.64,146.141 1048.5,152C 1055.75,155.195 1063.09,158.195 1070.5,161C 1096.55,169.128 1122.55,177.461 1148.5,186C 1204.33,207.151 1227.5,247.317 1218,306.5C 1208.52,342.655 1186.69,368.488 1152.5,384C 1109.53,400.963 1065.36,404.796 1020,395.5C 995.717,391.629 972.884,383.795 951.5,372C 946.761,368.687 943.928,364.187 943,358.5C 942.333,346.833 942.333,335.167 943,323.5C 944.592,319.113 947.758,316.78 952.5,316.5C 955.179,316.936 957.845,317.436 960.5,318C 1003.11,338.101 1047.77,345.434 1094.5,340C 1112.82,337.589 1128.32,329.755 1141,316.5C 1150.68,301.219 1152.02,285.219 1145,268.5C 1141.92,263.412 1138.08,258.912 1133.5,255C 1124.72,249.279 1115.39,244.612 1105.5,241C 1078.17,232.333 1050.83,223.667 1023.5,215C 967.735,193.965 942.568,153.798 948,94.5C 954.138,67.3615 968.638,45.8615 991.5,30C 1016.23,14.0341 1043.23,5.2008 1072.5,3.5 Z"/></g>
<g><path style="opacity:0.994" fill="#242e3d" d="M 199.5,4.5 C 226.546,3.14252 253.212,5.64252 279.5,12C 324.133,24.6357 350.633,53.8023 359,99.5C 360.326,106.454 361.326,113.454 362,120.5C 362.333,173.167 362.667,225.833 363,278.5C 363.382,292.843 365.715,306.843 370,320.5C 374.12,330.741 378.787,340.741 384,350.5C 385.84,358.655 383.34,365.155 376.5,370C 366.833,376.333 357.167,382.667 347.5,389C 339.918,391.707 332.918,390.707 326.5,386C 314.633,372.776 305.133,357.943 298,341.5C 248.285,395.555 188.452,411.055 118.5,388C 82.4187,370.037 62.5854,340.871 59,300.5C 54.6275,241.722 79.4609,200.889 133.5,178C 166.467,167.268 200.134,164.268 234.5,169C 253.93,171.266 273.097,174.766 292,179.5C 292.667,163.167 292.667,146.833 292,130.5C 289.029,88.5296 266.529,66.3629 224.5,64C 197.983,61.6872 171.983,64.3538 146.5,72C 130.028,77.2686 113.694,82.9352 97.5,89C 93.428,89.9559 89.5946,89.4559 86,87.5C 85.3333,86.1667 84.6667,84.8333 84,83.5C 83.3333,70.8333 83.3333,58.1667 84,45.5C 85.3062,41.1867 87.8062,37.6867 91.5,35C 125.555,17.6553 161.555,7.48863 199.5,4.5 Z M 215.5,217.5 C 241.793,218.203 267.793,221.537 293.5,227.5C 301.231,291.561 273.565,329.394 210.5,341C 152.761,347.595 127.595,322.095 135,264.5C 142.719,240.12 159.219,225.62 184.5,221C 194.917,219.259 205.251,218.092 215.5,217.5 Z"/></g>
<g><path style="opacity:0.994" fill="#242e3d" d="M 409.5,14.5 C 426.837,14.3334 444.17,14.5001 461.5,15C 468.566,15.4469 473.399,18.9469 476,25.5C 477.53,29.0901 478.864,32.7568 480,36.5C 503.177,128.209 526.511,219.876 550,311.5C 572.113,215.262 595.113,119.262 619,23.5C 622.469,18.5094 627.303,15.676 633.5,15C 649.5,14.3333 665.5,14.3333 681.5,15C 691.699,16.8689 697.532,23.0355 699,33.5C 720.857,126.927 743.024,220.26 765.5,313.5C 790.175,218.468 815.008,123.468 840,28.5C 841.455,25.0879 843.288,21.9212 845.5,19C 848.948,17.0728 852.615,15.7394 856.5,15C 873.167,14.3333 889.833,14.3333 906.5,15C 911.327,16.969 913.66,20.6357 913.5,26C 912.923,30.2177 912.09,34.3844 911,38.5C 877.131,146.439 843.465,254.439 810,362.5C 808.116,369.485 805.45,376.152 802,382.5C 797.979,386.399 793.145,388.566 787.5,389C 769.794,389.914 752.128,389.581 734.5,388C 728.939,385.438 725.106,381.272 723,375.5C 701.121,283.652 678.788,191.985 656,100.5C 635.842,184.13 615.842,267.797 596,351.5C 593.953,361.024 591.286,370.357 588,379.5C 585.545,384.149 581.712,386.983 576.5,388C 558.167,388.667 539.833,388.667 521.5,388C 516.988,387.492 513.488,385.325 511,381.5C 507.55,375.152 504.884,368.485 503,361.5C 470,252.833 437,144.167 404,35.5C 402.672,30.5576 402.339,25.5576 403,20.5C 404.436,17.5581 406.603,15.5581 409.5,14.5 Z"/></g>
<g><path style="opacity:0.98" fill="#ff9900" d="M 1164.5,475.5 C 1192.87,474.031 1220.87,476.531 1248.5,483C 1254.49,484.552 1260.16,486.885 1265.5,490C 1269.14,493.777 1271.3,498.277 1272,503.5C 1272.87,569.231 1253.53,628.231 1214,680.5C 1205.09,691.411 1194.92,700.911 1183.5,709C 1173.23,711.73 1169.06,707.897 1171,697.5C 1186.65,661.553 1199.32,624.553 1209,586.5C 1212.14,573.666 1213.14,560.666 1212,547.5C 1209.86,538.693 1204.36,533.193 1195.5,531C 1174.76,526.257 1153.76,524.59 1132.5,526C 1103.57,527.418 1074.74,529.918 1046,533.5C 1035.4,533.636 1032.4,528.97 1037,519.5C 1049.46,508.346 1063.62,499.846 1079.5,494C 1107.06,483.657 1135.4,477.49 1164.5,475.5 Z"/></g>
<g><path style="opacity:0.987" fill="#ff9900" d="M 13.5,500.5 C 17.2733,500.263 20.9399,500.763 24.5,502C 209.115,606.971 407.781,662.638 620.5,669C 799.231,672.453 970.898,639.453 1135.5,570C 1153.23,567.411 1161.73,574.911 1161,592.5C 1157.93,598.9 1153.43,604.067 1147.5,608C 1073.66,659.079 993.329,697.079 906.5,722C 706.223,779.694 507.89,773.694 311.5,704C 197.755,661.759 96.5886,599.926 8,518.5C 6.47958,514.625 6.14625,510.625 7,506.5C 8.49363,503.686 10.6603,501.686 13.5,500.5 Z"/></g>
</svg>
