<svg width="178" height="24" viewBox="0 0 178 24" fill="none" xmlns="http://www.w3.org/2000/svg">
<path d="M30.0117 6.375H33.2787C34.2322 6.375 35.0937 6.51214 35.863 6.78643C36.6432 7.06071 37.3042 7.44471 37.846 7.93843C38.3986 8.42117 38.8212 8.99717 39.1137 9.66643C39.4171 10.3357 39.5688 11.0653 39.5688 11.8552C39.5688 12.6452 39.4171 13.3748 39.1137 14.044C38.8212 14.7133 38.3986 15.2948 37.846 15.7885C37.3042 16.2712 36.6432 16.6497 35.863 16.924C35.0937 17.1983 34.2322 17.3355 33.2787 17.3355H30.0117V6.375ZM33.3275 15.4923C33.9017 15.4923 34.4327 15.41 34.9203 15.2454C35.4079 15.0808 35.8251 14.8449 36.1718 14.5377C36.5294 14.2196 36.8057 13.8356 37.0008 13.3857C37.1958 12.9359 37.2933 12.4257 37.2933 11.8552C37.2933 11.2847 37.1958 10.7745 37.0008 10.3247C36.8057 9.87489 36.5294 9.49637 36.1718 9.18917C35.8251 8.871 35.4079 8.62963 34.9203 8.46506C34.4327 8.30049 33.9017 8.2182 33.3275 8.2182H32.2872V15.4923H33.3275Z" fill="#24205E"/>
<path d="M52.9345 17.3355H50.5777L49.8138 15.0315H45.3603L44.5964 17.3355H42.2396L46.3518 6.375H48.8223L52.9345 17.3355ZM47.5871 8.2182L45.9617 13.2047H49.2124L47.5871 8.2182Z" fill="#24205E"/>
<path d="M63.2835 6.375V8.2182H60.2928V17.3355H58.0173V8.2182H55.0266V6.375H63.2835Z" fill="#24205E"/>
<path d="M76.0641 17.3355H73.7074L72.9435 15.0315H68.49L67.726 17.3355H65.3693L69.4814 6.375H71.952L76.0641 17.3355ZM70.7167 8.2182L69.0913 13.2047H72.3421L70.7167 8.2182Z" fill="#24205E"/>
<path d="M86.715 17.3355V12.7275H82.229V17.3355H79.9535V6.375H82.229V10.8184H86.715V6.375H88.9905V17.3355H86.715Z" fill="#24205E"/>
<path d="M93.7087 6.375H100.21V8.20174H95.9842V10.8513H100.015V12.6781H95.9842V15.5087H100.259V17.3355H93.7087V6.375Z" fill="#24205E"/>
<path d="M112.52 9.7158C112.52 10.4948 112.304 11.1531 111.87 11.6907C111.437 12.2173 110.814 12.6232 110.001 12.9085L113.658 17.3355H110.83L107.693 13.3364H106.962V17.3355H104.686V6.375H107.921C108.593 6.375 109.21 6.44631 109.774 6.58894C110.337 6.7206 110.819 6.92906 111.22 7.21431C111.632 7.4886 111.952 7.8342 112.179 8.25111C112.407 8.66803 112.52 9.15626 112.52 9.7158ZM110.245 9.76517C110.245 9.20563 110.028 8.79969 109.595 8.54734C109.161 8.295 108.598 8.16883 107.904 8.16883H106.962V11.5919H107.644C108.425 11.5919 109.053 11.4383 109.53 11.1311C110.007 10.8239 110.245 10.3686 110.245 9.76517Z" fill="#24205E"/>
<path d="M127.26 17.3355H124.903L124.139 15.0315H119.686L118.922 17.3355H116.565L120.677 6.375H123.148L127.26 17.3355ZM121.912 8.2182L120.287 13.2047H123.538L121.912 8.2182Z" fill="#24205E"/>
<path d="M133.425 6.375V15.4923H137.456V17.3355H131.149V6.375H133.425Z" fill="#24205E"/>
<path d="M141.412 6.375H144.679C145.633 6.375 146.494 6.51214 147.264 6.78643C148.044 7.06071 148.705 7.44471 149.247 7.93843C149.799 8.42117 150.222 8.99717 150.514 9.66643C150.818 10.3357 150.97 11.0653 150.97 11.8552C150.97 12.6452 150.818 13.3748 150.514 14.044C150.222 14.7133 149.799 15.2948 149.247 15.7885C148.705 16.2712 148.044 16.6497 147.264 16.924C146.494 17.1983 145.633 17.3355 144.679 17.3355H141.412V6.375ZM144.728 15.4923C145.302 15.4923 145.833 15.41 146.321 15.2454C146.809 15.0808 147.226 14.8449 147.573 14.5377C147.93 14.2196 148.206 13.8356 148.401 13.3857C148.596 12.9359 148.694 12.4257 148.694 11.8552C148.694 11.2847 148.596 10.7745 148.401 10.3247C148.206 9.87489 147.93 9.49637 147.573 9.18917C147.226 8.871 146.809 8.62963 146.321 8.46506C145.833 8.30049 145.302 8.2182 144.728 8.2182H143.688V15.4923H144.728Z" fill="#24205E"/>
<path fill-rule="evenodd" clip-rule="evenodd" d="M1.9453 17.3925L1.929 17.4513L1.92485 17.4666C1.87122 17.5344 1.81937 17.6049 1.7693 17.6781C0.698807 16.1553 0.0908203 14.2401 0.0908203 12.0924C0.0908203 6.76676 3.81785 2.85986 9.10425 2.85986C10.8823 2.85986 12.4843 3.31196 13.831 4.10876C13.817 4.11396 13.8027 4.11894 13.7885 4.12392C13.7732 4.1293 13.7579 4.13466 13.743 4.14026C13.7252 4.14686 13.7059 4.15466 13.6876 4.16246C13.4964 4.23566 13.3196 4.30916 13.1433 4.38296L13.031 4.42976C12.9018 4.48316 12.7732 4.53686 12.6482 4.59386C12.4692 4.67486 12.2994 4.75916 12.1347 4.84106L12.079 4.86896L11.9546 4.93016C11.8408 4.98596 11.727 5.04176 11.6168 5.10056C11.4618 5.18306 11.3119 5.26976 11.162 5.35676L11.0778 5.40536L11.0295 5.43326L11.0091 5.44496L10.9069 5.50346L10.8963 5.50949C10.8136 5.55669 10.7307 5.60396 10.6509 5.65316C10.5984 5.68508 10.5481 5.71838 10.4978 5.75163C10.4776 5.76494 10.4575 5.77825 10.4373 5.79146C10.0156 5.69756 9.57268 5.64296 9.10425 5.64296C5.53574 5.64296 3.26319 8.39936 3.26319 12.0924C3.26319 12.6459 3.32186 13.1754 3.42319 13.6818C3.42072 13.6865 3.41815 13.6913 3.41557 13.6961C3.41009 13.7064 3.40452 13.7169 3.39949 13.7271C3.34556 13.8339 3.29312 13.9392 3.24275 14.0433C3.19357 14.1441 3.14557 14.2437 3.09964 14.3418L3.07712 14.391L3.06112 14.4255L3.04779 14.454C3.03646 14.4786 3.02508 14.5032 3.01376 14.5277C2.99548 14.5672 2.97736 14.6063 2.95979 14.6451C2.91858 14.7367 2.87905 14.8269 2.84038 14.9151L2.83713 14.9226L2.82943 14.9404C2.79115 15.0292 2.75327 15.117 2.71772 15.2022C2.6795 15.2934 2.64336 15.3819 2.6081 15.4695L2.59032 15.5139L2.58351 15.531L2.56247 15.5838C2.5441 15.6294 2.52603 15.6747 2.50914 15.7182C2.47762 15.7991 2.4486 15.8764 2.41993 15.9527L2.41699 15.9606L2.39832 16.0104L2.39831 16.0104C2.37579 16.071 2.35328 16.1316 2.33255 16.1886C2.30736 16.2582 2.28455 16.3239 2.26173 16.3896L2.24336 16.4427C2.22411 16.497 2.20544 16.5516 2.18855 16.6017C2.16692 16.6665 2.14826 16.7238 2.12959 16.7823L2.11655 16.8219C2.10203 16.8669 2.08752 16.9119 2.07478 16.9521C2.05955 17.0012 2.04642 17.0452 2.03352 17.0884L2.02855 17.1051L2.01374 17.154L1.98944 17.2356C1.97463 17.2866 1.96337 17.3271 1.95182 17.3688L1.9453 17.3925ZM15.0011 12.7926L15.0612 12.7887C15.4585 12.7686 15.8485 12.7224 16.281 12.6444C17.1151 12.4944 17.726 12.27 18.1168 12.093C18.1163 17.4183 14.3635 21.3249 9.10431 21.3249C6.93636 21.3249 5.0324 20.6658 3.53851 19.5231C3.54907 19.5056 3.5601 19.487 3.57087 19.4688C3.57731 19.4579 3.58366 19.4472 3.58977 19.437C3.8825 18.9549 4.13257 18.5652 4.19746 18.4647C4.27034 18.3711 4.34471 18.2829 4.41908 18.1947C4.43231 18.1788 4.44558 18.1629 4.45885 18.147C4.48538 18.1153 4.51192 18.0836 4.53819 18.0516C4.78322 17.7555 5.04099 17.4651 5.32602 17.1642C6.30052 18.03 7.58197 18.5421 9.10431 18.5421C12.4148 18.5421 14.639 16.1091 14.9151 12.7974C14.9186 12.7972 14.9222 12.797 14.9258 12.7967C14.9385 12.796 14.9515 12.7952 14.9617 12.795L14.9809 12.7938L15.0011 12.7926Z" fill="#24205E"/>
<path fill-rule="evenodd" clip-rule="evenodd" d="M14.0084 4.86044C12.5338 5.42174 11.1229 6.17444 9.80407 7.13714C8.10722 8.37554 6.62577 9.91154 5.42698 11.6461C4.15797 13.483 3.49991 15.6259 2.59445 17.6482C2.30913 18.2854 1.86499 18.9166 1.73936 19.6111C1.64899 20.1115 1.57344 20.8183 1.77669 21.295C2.20572 20.6566 2.45905 19.861 2.87089 19.1974C3.30199 18.5032 3.78613 17.8432 4.31412 17.2216C5.35498 15.9961 6.56622 14.9182 7.89507 14.023C8.84024 13.3861 9.85355 12.8401 10.9386 12.5011C11.8191 12.2257 12.7442 12.1522 13.66 12.1057C14.5731 12.0595 15.4931 12.0415 16.3941 11.8714C16.715 11.8108 17.0318 11.7286 17.3405 11.6212C17.4966 11.5669 17.651 11.5063 17.8024 11.4388C17.8353 11.4241 18.1864 11.239 18.1903 11.2435C18.1402 11.218 18.0883 11.137 18.0489 11.0959C17.9962 11.041 17.9434 10.9861 17.891 10.9315L17.5752 10.6024C17.3574 10.375 17.1393 10.1479 16.9212 9.92084L17.8418 9.67634L17.9757 9.64094L20.0275 9.09554L23.7563 3.68294C23.2577 3.63614 22.7733 3.60764 22.2968 3.58844C19.443 3.47294 16.6258 3.86444 14.0084 4.86044Z" fill="#E41F32"/>
<path d="M166.317 15.3606H162.55L161.825 17.25H158.922L162.969 6.375H165.955L169.917 17.25H167.001L166.317 15.3606ZM165.578 13.1971L164.462 9.73558H164.434L163.304 13.1971H165.578Z" fill="#24205E"/>
<path d="M174.623 6.375V17.25H171.888V6.375H174.623Z" fill="#24205E"/>
</svg>
