<svg width="70" height="48" viewBox="0 0 70 48" fill="none" xmlns="http://www.w3.org/2000/svg">
<rect width="70" height="48" rx="4" fill="#00447C"/>
<path d="M13.5623 34.9665L13.5623 34.9663L18.7004 12.9156L18.7005 12.9154C19.0094 11.5868 20.3563 10.502 21.6555 10.502H32.687C33.3153 10.502 33.7869 10.7539 34.071 11.1261C34.3567 11.5002 34.4886 12.0433 34.3385 12.6889L29.2028 34.7383C28.8911 36.0626 27.5427 37.1487 26.2443 37.1487H15.2138C14.5869 37.1487 14.115 36.8967 13.8304 36.5245C13.5444 36.1504 13.4125 35.6085 13.5623 34.9665Z" fill="#E21836" stroke="white"/>
<path d="M44.4505 12.6861L44.4503 12.6868L39.3153 34.737C39.2466 35.0302 39.1933 35.3194 39.1456 35.5785C39.1286 35.6709 39.1123 35.7594 39.0962 35.8429C39.0323 36.1759 38.9719 36.4329 38.8882 36.6349C38.8079 36.8288 38.7186 36.9404 38.6134 37.0108C38.5068 37.0821 38.3302 37.1468 38.0113 37.1468H25.3253C24.6954 37.1468 24.224 36.8944 23.9408 36.523C23.6561 36.1496 23.5255 35.6081 23.6768 34.9655L23.6771 34.9643L28.8116 12.915C28.8117 12.9147 28.8118 12.9145 28.8118 12.9142C29.1262 11.5837 30.4712 10.5 31.7681 10.5H44.4541C44.7906 10.5 44.8746 10.572 44.8814 10.5786L44.8816 10.5788C44.8834 10.5806 44.8902 10.587 44.8975 10.6131C44.9065 10.6455 44.9143 10.7023 44.9095 10.7947C44.8995 10.9875 44.8415 11.2412 44.7489 11.5785C44.7253 11.6644 44.6996 11.7555 44.6727 11.8506C44.5998 12.1083 44.5187 12.3951 44.4505 12.6861Z" fill="#00447C" stroke="white"/>
<path d="M56.6335 12.6861L56.6334 12.6868L51.4985 34.7363C51.4984 34.7366 51.4984 34.7368 51.4983 34.737C51.1863 36.0607 49.8373 37.1468 48.5381 37.1468H37.5116C36.8817 37.1468 36.4096 36.8944 36.1256 36.5227C35.8402 36.1491 35.7092 35.6075 35.8599 34.9652L35.8601 34.9643L40.9961 12.9136L40.9962 12.9134C41.3051 11.5848 42.651 10.5 43.9511 10.5H54.9827C55.6123 10.5 56.0843 10.7522 56.3682 11.1241C56.6535 11.4979 56.7848 12.0406 56.6335 12.6861Z" fill="#007B84" stroke="white"/>
<path d="M24.5356 17.0663C23.4012 17.0778 23.0661 17.0663 22.9591 17.041C22.918 17.2365 22.1525 20.7678 22.1503 20.7707C21.9855 21.4851 21.8656 21.9944 21.4582 22.3233C21.227 22.5144 20.957 22.6067 20.644 22.6067C20.1409 22.6067 19.8478 22.3569 19.7986 21.8831L19.7892 21.7204C19.7892 21.7204 19.9425 20.7634 19.9425 20.7581C19.9425 20.7581 20.7459 17.5401 20.8898 17.1147C20.8973 17.0905 20.8995 17.0778 20.9013 17.0663C19.3375 17.08 19.0603 17.0663 19.0412 17.041C19.0307 17.0757 18.992 17.2752 18.992 17.2752L18.1716 20.9022L18.1012 21.2098L17.9648 22.216C17.9648 22.5144 18.0235 22.758 18.1402 22.964C18.5139 23.6171 19.58 23.715 20.1831 23.715C20.9602 23.715 21.6892 23.5499 22.1818 23.2485C23.0368 22.7433 23.2605 21.9535 23.4601 21.2517L23.5525 20.8917C23.5525 20.8917 24.3802 17.5495 24.5208 17.1147C24.5262 17.0905 24.5283 17.0778 24.5356 17.0663ZM27.3515 19.7625C27.152 19.7625 26.7874 19.8109 26.4599 19.9714C26.3411 20.0325 26.2287 20.1029 26.1101 20.1731L26.2171 19.7867L26.1585 19.7216C25.464 19.8623 25.3086 19.8811 24.667 19.9714L24.6132 20.0072C24.5387 20.6248 24.4726 21.0892 24.1964 22.3032C24.0913 22.7506 23.9821 23.2023 23.8727 23.6487L23.9023 23.7054C24.5597 23.6707 24.7592 23.6707 25.3306 23.6802L25.3769 23.6299C25.4495 23.258 25.4589 23.1709 25.6197 22.4177C25.6952 22.0607 25.8528 21.2761 25.9305 20.9967C26.0733 20.9305 26.2142 20.8655 26.3486 20.8655C26.6688 20.8655 26.6299 21.1448 26.6175 21.2562C26.6038 21.443 26.4871 22.0534 26.3674 22.5775L26.2876 22.9157C26.2319 23.1655 26.1709 23.4083 26.1152 23.656L26.1394 23.7054C26.7874 23.6707 26.9851 23.6707 27.5384 23.6802L27.6035 23.6299C27.7035 23.0491 27.7328 22.8937 27.9103 22.048L27.9996 21.6595C28.173 20.8991 28.2601 20.5135 28.1289 20.1994C27.9901 19.8475 27.6573 19.7625 27.3515 19.7625ZM30.4973 20.5586C30.1528 20.6248 29.9332 20.6689 29.7148 20.6974C29.4984 20.7321 29.2873 20.7635 28.9544 20.8098L28.9281 20.8337L28.9039 20.8528C28.8692 21.1007 28.845 21.315 28.799 21.567C28.76 21.8275 28.7001 22.1236 28.6025 22.5489C28.5269 22.8745 28.4879 22.988 28.4449 23.1026C28.4029 23.2171 28.3567 23.3284 28.2717 23.6487L28.2916 23.6782L28.3083 23.7054C28.6194 23.6906 28.8229 23.6801 29.0321 23.6782C29.2411 23.6707 29.4575 23.6782 29.7925 23.6801L29.8218 23.6562L29.8533 23.6298C29.9017 23.3411 29.909 23.2634 29.9385 23.1225C29.9679 22.9713 30.0184 22.7622 30.1424 22.2034C30.201 21.941 30.2663 21.6794 30.3271 21.4115C30.3903 21.1448 30.4564 20.8821 30.5193 20.6197L30.5099 20.5879L30.4973 20.5586ZM30.5046 19.4852C30.1916 19.3005 29.6423 19.3591 29.2726 19.6143C28.904 19.8643 28.862 20.2193 29.1739 20.4064C29.4815 20.586 30.033 20.5325 30.3995 20.2752C30.7673 20.0197 30.8133 19.668 30.5046 19.4852ZM32.3974 23.7633C33.0307 23.7633 33.6798 23.5888 34.1683 23.0709C34.5442 22.6509 34.7166 22.026 34.7763 21.7687C34.9707 20.9158 34.8193 20.5176 34.6292 20.275C34.3404 19.9053 33.8301 19.7868 33.3006 19.7868C32.9823 19.7868 32.224 19.8182 31.6317 20.3643C31.2063 20.7582 31.0097 21.2928 30.8911 21.8053C30.7715 22.3274 30.6338 23.2675 31.4983 23.6173C31.765 23.7318 32.1495 23.7633 32.3974 23.7633ZM32.348 21.8443C32.494 21.1984 32.6663 20.6563 33.1062 20.6563C33.4509 20.6563 33.4759 21.0597 33.3227 21.7077C33.2953 21.8515 33.1694 22.3863 32.9992 22.6141C32.8804 22.7821 32.7397 22.884 32.5843 22.884C32.5381 22.884 32.263 22.884 32.2587 22.4756C32.2565 22.2739 32.2977 22.068 32.348 21.8443ZM36.3592 23.6802L36.4087 23.63C36.4789 23.2581 36.4904 23.1707 36.6458 22.4178C36.7235 22.0607 36.8843 21.2761 36.9599 20.9968C37.1029 20.9303 37.2414 20.8653 37.3802 20.8653C37.6982 20.8653 37.6595 21.1446 37.6469 21.256C37.6353 21.4431 37.5186 22.0532 37.3968 22.5773L37.3213 22.9155C37.2635 23.1656 37.2005 23.4081 37.1449 23.656L37.1691 23.7055C37.8192 23.6708 38.0093 23.6708 38.5659 23.6802L38.6332 23.63C38.7308 23.0489 38.7571 22.8935 38.94 22.0481L39.0271 21.6593C39.2013 20.8989 39.2895 20.5136 39.1604 20.1995C39.0177 19.8475 38.6826 19.7626 38.3812 19.7626C38.1814 19.7626 37.8149 19.8107 37.4893 19.9715C37.3729 20.0325 37.2562 20.1027 37.1417 20.1732L37.2414 19.7868L37.1879 19.7214C36.4936 19.8623 36.335 19.8812 35.6942 19.9715L35.645 20.0073C35.5673 20.6249 35.5041 21.089 35.228 22.3033C35.1229 22.7507 35.0137 23.2024 34.9045 23.6488L34.9338 23.7055C35.5923 23.6708 35.7889 23.6708 36.3592 23.6802ZM41.1361 23.7054C41.1769 23.5059 41.4198 22.3233 41.4219 22.3233C41.4219 22.3233 41.6287 21.4556 41.6413 21.4242C41.6413 21.4242 41.7064 21.3338 41.7715 21.298H41.8672C42.7704 21.298 43.7902 21.298 44.5896 20.71C45.1336 20.3067 45.5055 19.7111 45.6714 18.9872C45.7144 18.8098 45.7461 18.5987 45.7461 18.3876C45.7461 18.1104 45.6905 17.8361 45.5297 17.6218C45.122 17.0515 44.3103 17.0411 43.3732 17.0368C43.3702 17.0368 42.9113 17.0411 42.9113 17.0411C41.7118 17.0558 41.2307 17.0515 41.0331 17.0273C41.0164 17.1147 40.985 17.2701 40.985 17.2701C40.985 17.2701 40.5553 19.2615 40.5553 19.2647C40.5553 19.2647 39.5271 23.4986 39.4787 23.6981C40.526 23.6855 40.9554 23.6855 41.1361 23.7054ZM41.9322 20.1679C41.9322 20.1679 42.3891 18.1806 42.3869 18.1881L42.4017 18.0862L42.4082 18.0085L42.5907 18.0273C42.5907 18.0273 43.5329 18.1083 43.555 18.1104C43.9268 18.2543 44.0801 18.6251 43.9731 19.1091C43.8755 19.5514 43.5886 19.9232 43.2199 20.1029C42.9164 20.255 42.5445 20.2677 42.1613 20.2677H41.9134L41.9322 20.1679ZM44.7766 21.8811C44.6559 22.3957 44.5171 23.3357 45.3773 23.6708C45.6516 23.7875 45.8973 23.8222 46.1471 23.8095C46.4109 23.7953 46.6553 23.663 46.8817 23.4726C46.8613 23.5508 46.8409 23.6291 46.8204 23.7076L46.8594 23.7579C47.4781 23.7318 47.6701 23.7318 48.3404 23.7369L48.4012 23.6907C48.4991 23.1153 48.5913 22.5565 48.8457 21.4557C48.9696 20.9284 49.0933 20.4062 49.2205 19.8811L49.2006 19.8233C48.5085 19.9515 48.3235 19.979 47.6577 20.0734L47.6072 20.1145C47.6005 20.168 47.5935 20.2194 47.587 20.2707C47.4835 20.1035 47.3335 19.9607 47.1019 19.8717C46.8059 19.7553 46.1106 19.9053 45.5128 20.4495C45.0928 20.8381 44.8912 21.3705 44.7766 21.8811ZM46.2302 21.9125C46.3784 21.2782 46.5486 20.7415 46.9895 20.7415C47.2684 20.7415 47.4152 20.9989 47.3853 21.4377C47.3617 21.5471 47.3361 21.6625 47.3058 21.7929C47.2617 21.9814 47.2138 22.1682 47.1673 22.3554C47.12 22.4834 47.0648 22.6041 47.0043 22.6845C46.8909 22.8453 46.6209 22.945 46.4655 22.945C46.4214 22.945 46.1493 22.945 46.1399 22.5439C46.1377 22.3441 46.1789 22.1384 46.2302 21.9125ZM53.821 19.8182L53.7675 19.7571C53.0826 19.8959 52.9587 19.9179 52.3295 20.0029L52.2832 20.0491C52.2811 20.0567 52.2792 20.0682 52.276 20.0787L52.2738 20.0682C51.8054 21.1489 51.8191 20.9157 51.4378 21.7665C51.4357 21.7278 51.4357 21.7036 51.4335 21.6624L51.3381 19.8182L51.2781 19.7571C50.5607 19.8959 50.5438 19.9179 49.8813 20.0029L49.8296 20.0491C49.8224 20.0712 49.8224 20.0954 49.8181 20.1217L49.8224 20.1311C49.9052 20.5544 49.8853 20.46 49.9684 21.1279C50.0071 21.4557 50.0587 21.7853 50.0975 22.1091C50.1628 22.6509 50.1994 22.9176 50.2792 23.7444C49.8318 24.4828 49.7259 24.7621 49.2951 25.4102L49.2981 25.4166L48.9948 25.8963C48.9601 25.9469 48.9286 25.9815 48.8845 25.9963C48.8361 26.0203 48.7732 26.0246 48.6858 26.0246H48.5178L48.268 26.8554L49.1249 26.8702C49.628 26.8681 49.9442 26.6328 50.1144 26.3166L50.6532 25.3932H50.6446L50.7014 25.3282C51.0638 24.5478 53.821 19.8182 53.821 19.8182ZM44.7766 30.7302H44.4131L45.7586 26.2799H46.2049L46.3466 25.8214L46.3603 26.3312C46.3437 26.6464 46.5916 26.9257 47.2428 26.8795H47.996L48.2552 26.0225H47.9718C47.8088 26.0225 47.7333 25.9814 47.7427 25.8932L47.729 25.3745H46.3342V25.3772C45.8833 25.3866 44.5368 25.4205 44.2641 25.4931C43.9342 25.5781 43.5865 25.8281 43.5865 25.8281L43.7231 25.3692H42.4185L42.1466 26.2799L40.7831 30.7982H40.5185L40.2591 31.649H42.8576L42.7704 31.9326H44.0509L44.1358 31.649H44.4951L44.7766 30.7302ZM43.7105 27.1841C43.5015 27.2419 43.1127 27.4173 43.1127 27.4173L43.4585 26.2799H44.4951L44.245 27.1086C44.245 27.1086 43.9248 27.1274 43.7105 27.1841ZM43.7304 28.809C43.7304 28.809 43.4047 28.8499 43.1904 28.8983C42.9794 28.9623 42.5836 29.1639 42.5836 29.1639L42.9406 27.9803H43.9826L43.7304 28.809ZM43.1496 30.7407H42.1098L42.4112 29.7418H43.4478L43.1496 30.7407ZM45.6536 27.9803H47.1524L46.937 28.6778H45.4183L45.1903 29.4403H46.5191L45.513 30.8571C45.4425 30.9612 45.3793 30.998 45.3091 31.0273C45.2387 31.0631 45.1462 31.105 45.0392 31.105H44.6705L44.4173 31.9402H45.3815C45.8827 31.9402 46.1787 31.7122 46.3973 31.4129L47.0873 30.4686L47.2354 31.4274C47.2669 31.607 47.396 31.7122 47.4834 31.753C47.5799 31.8014 47.6796 31.8845 47.8205 31.8969C47.9717 31.9033 48.0808 31.9084 48.1534 31.9084H48.6272L48.9117 30.9738H48.7248C48.6175 30.9738 48.4328 30.9558 48.4013 30.9222C48.3699 30.8813 48.3699 30.8184 48.3529 30.7227L48.2026 29.7617H47.5871L47.8571 29.4403H49.3728L49.6059 28.6778H48.2026L48.4212 27.9803H49.8202L50.0797 27.1201H45.9088L45.6536 27.9803ZM32.995 30.9349L33.3448 29.7712H34.7825L35.0452 28.9056H33.6061L33.8258 28.1893H35.2321L35.4926 27.3512H31.974L31.7188 28.1893H32.5182L32.305 28.9056H31.5035L31.2378 29.7859H32.0369L31.5707 31.3256C31.5078 31.5294 31.6003 31.6071 31.6589 31.7018C31.7188 31.794 31.7796 31.855 31.9162 31.8897C32.0571 31.9212 32.1536 31.94 32.2848 31.94H33.9057L34.1945 30.9811L33.476 31.0798C33.3373 31.0798 32.953 31.0632 32.995 30.9349ZM33.1599 25.3639L32.7955 26.0224C32.7176 26.1663 32.6474 26.2555 32.5842 26.2967C32.5285 26.3314 32.4183 26.3459 32.2586 26.3459H32.0685L31.8144 27.1883H32.4457C32.7493 27.1883 32.9824 27.077 33.0937 27.0213C33.2134 26.9573 33.2448 26.9939 33.3373 26.9046L33.5506 26.7199H35.522L35.7836 25.8428H34.3405L34.5925 25.3639H33.1599ZM36.0704 30.9518C36.0368 30.9034 36.061 30.8182 36.1123 30.6407L36.6512 28.8572H38.5681C38.8474 28.8532 39.0491 28.8499 39.1803 28.8405C39.3212 28.8257 39.4745 28.7754 39.6415 28.6851C39.8138 28.5905 39.902 28.4907 39.9765 28.3762C40.0596 28.2619 40.1929 28.0118 40.3075 27.6262L40.9848 25.3692L38.9956 25.3808C38.9956 25.3808 38.3831 25.4711 38.1134 25.5709C37.8413 25.6822 37.4525 25.993 37.4525 25.993L37.6321 25.3743H36.4033L34.6829 31.0798C34.6219 31.3014 34.581 31.4621 34.5716 31.5587C34.5684 31.6627 34.7028 31.7657 34.79 31.8434C34.8929 31.9211 35.0451 31.9085 35.1911 31.9211C35.3447 31.9327 35.563 31.94 35.8644 31.94H36.8087L37.0986 30.9612L36.2532 31.0411C36.1629 31.0411 36.0975 30.9927 36.0704 30.9518ZM36.9989 27.6526H39.0123L38.8843 28.0538C38.8663 28.0632 38.8232 28.0339 38.6183 28.0581H36.8749L36.9989 27.6526ZM37.4022 26.3071H39.4325L39.2865 26.7903C39.2865 26.7903 38.3296 26.7809 38.1763 26.8091C37.5019 26.9258 37.108 27.2861 37.108 27.2861L37.4022 26.3071ZM38.9293 29.3972C38.9127 29.4572 38.8863 29.4937 38.8495 29.5211C38.8086 29.5475 38.7425 29.5569 38.6438 29.5569H38.3569L38.3738 29.0683H37.1805L37.1321 31.4569C37.1302 31.6292 37.1469 31.729 37.273 31.8088C37.3991 31.9086 37.7877 31.9212 38.3106 31.9212H39.0584L39.3284 31.0272L38.6774 31.0629L38.4609 31.0756C38.4314 31.0629 38.4031 31.0514 38.3717 31.0199C38.3442 30.9928 38.298 31.0094 38.3055 30.8371L38.3106 30.2248L38.9933 30.1966C39.362 30.1966 39.5195 30.0767 39.654 29.9624C39.7822 29.853 39.8242 29.7271 39.8726 29.5569L39.9871 29.0148H39.049L38.9293 29.3972Z" fill="white"/>
</svg>
