<svg width="75" height="75" viewBox="0 0 75 75" fill="none" xmlns="http://www.w3.org/2000/svg">
<path fill-rule="evenodd" clip-rule="evenodd" d="M5.86781 54.3516L5.81625 54.5354L5.80312 54.5832C5.63344 54.7951 5.46938 55.0154 5.31094 55.2441C1.92375 50.4854 0 44.5004 0 37.7888C0 21.1463 11.7928 8.93726 28.5197 8.93726C34.1456 8.93726 39.2147 10.3501 43.4756 12.8401C43.4314 12.8563 43.3864 12.8719 43.3414 12.8875C43.2928 12.9042 43.2444 12.921 43.1972 12.9385C43.1409 12.9591 43.08 12.9835 43.0219 13.0079C42.4172 13.2366 41.8575 13.4663 41.2997 13.6969L40.9444 13.8432C40.5356 14.0101 40.1287 14.1779 39.7331 14.356C39.1669 14.6091 38.6297 14.8726 38.1084 15.1285L37.9322 15.2157L37.5384 15.4069C37.1784 15.5813 36.8184 15.7557 36.4697 15.9394C35.9794 16.1973 35.505 16.4682 35.0306 16.7401L34.7644 16.8919L34.6116 16.9791L34.5469 17.0157L34.2234 17.1985L34.1898 17.2174C33.9282 17.3649 33.6661 17.5126 33.4134 17.6663C33.2474 17.7661 33.0881 17.8701 32.929 17.974C32.8653 18.0156 32.8016 18.0572 32.7375 18.0985C31.4034 17.8051 30.0019 17.6344 28.5197 17.6344C17.2284 17.6344 10.0378 26.2482 10.0378 37.7888C10.0378 39.5185 10.2234 41.1732 10.5441 42.7557C10.5362 42.7704 10.5281 42.7855 10.5199 42.8006C10.5026 42.8327 10.485 42.8654 10.4691 42.8973C10.2984 43.231 10.1325 43.5601 9.97313 43.8854C9.8175 44.2004 9.66562 44.5116 9.52031 44.8182L9.44906 44.9719L9.39844 45.0798L9.35625 45.1688C9.32039 45.2459 9.28439 45.3227 9.24858 45.3992C9.19075 45.5226 9.13339 45.645 9.07781 45.766C8.94733 46.0525 8.82217 46.3346 8.69975 46.6105L8.68969 46.6332L8.66544 46.6887C8.54429 46.9661 8.42437 47.2406 8.31188 47.5069C8.19094 47.7919 8.07656 48.0685 7.965 48.3423L7.90875 48.481L7.88719 48.5344L7.82062 48.6994C7.7625 48.8419 7.70531 48.9835 7.65188 49.1194C7.5522 49.3723 7.4604 49.6137 7.36971 49.8522L7.36031 49.8769L7.30125 50.0326L7.30103 50.0332C7.22985 50.2223 7.15868 50.4115 7.09312 50.5894C7.01347 50.8069 6.94131 51.0121 6.86915 51.2173L6.86906 51.2176L6.81094 51.3835C6.75 51.5532 6.69094 51.7238 6.6375 51.8804C6.56906 52.0829 6.51 52.2619 6.45094 52.4448L6.40969 52.5685C6.36375 52.7091 6.31781 52.8498 6.2775 52.9754C6.22933 53.129 6.18778 53.2665 6.14698 53.4015L6.13125 53.4535L6.08437 53.6063L6.0075 53.8613C5.96063 54.0207 5.925 54.1473 5.88844 54.2776L5.86781 54.3516ZM47.178 39.9769L47.3683 39.9648C48.6255 39.9019 49.8592 39.7576 51.228 39.5138C53.8671 39.0451 55.8002 38.3438 57.0368 37.7907C57.0349 54.4323 45.1605 66.6404 28.5199 66.6404C21.6602 66.6404 15.6358 64.5807 10.9089 61.0098C10.9424 60.9552 10.9773 60.8969 11.0114 60.84C11.0318 60.8061 11.0518 60.7726 11.0711 60.7407C11.9974 59.2341 12.7886 58.0163 12.9939 57.7023C13.2246 57.4098 13.4599 57.1341 13.6952 56.8585C13.7371 56.8088 13.7791 56.7592 13.821 56.7096C13.905 56.6105 13.9889 56.5113 14.0721 56.4113C14.8474 55.486 15.663 54.5785 16.5649 53.6382C19.6483 56.3438 23.703 57.9441 28.5199 57.9441C38.9946 57.9441 46.0324 50.341 46.9061 39.9919C46.9171 39.9913 46.9285 39.9907 46.9399 39.99C46.98 39.9876 47.0212 39.9852 47.0533 39.9844L47.1143 39.9807L47.178 39.9769Z" fill="#24205E"/>
<path fill-rule="evenodd" clip-rule="evenodd" d="M44.0375 15.1883C39.3716 16.9424 34.9072 19.2946 30.7344 22.303C25.3653 26.173 20.6778 30.973 16.8847 36.3936C12.8694 42.134 10.7872 48.8305 7.92219 55.1502C7.01938 57.1414 5.61407 59.114 5.21657 61.2843C4.93063 62.848 4.69157 65.0568 5.33469 66.5465C6.69219 64.5515 7.49375 62.0652 8.79688 59.9915C10.1609 57.8221 11.6928 55.7596 13.3634 53.8171C16.6569 49.9874 20.4894 46.6189 24.6941 43.8214C27.6847 41.8311 30.8909 40.1249 34.3241 39.0655C37.1103 38.2049 40.0372 37.9752 42.935 37.8299C45.8244 37.6855 48.7353 37.6293 51.5863 37.0977C52.6016 36.9083 53.6038 36.6515 54.5806 36.3158C55.0747 36.1461 55.5631 35.9568 56.0422 35.7458C56.1463 35.6999 57.2572 35.1215 57.2694 35.1355C57.1109 35.0558 56.9469 34.8027 56.8222 34.6743C56.6553 34.5027 56.4884 34.3311 56.3225 34.1605L55.3231 33.1321C54.6341 32.4215 53.9441 31.7118 53.2541 31.0021L56.1669 30.238L56.5906 30.1274L63.0828 28.423L74.8813 11.5086C73.3034 11.3624 71.7706 11.2733 70.2631 11.2133C61.2331 10.8524 52.3194 12.0758 44.0375 15.1883Z" fill="#E41F32"/>
</svg>
