<svg width="193" height="31" viewBox="0 0 193 31" fill="none" xmlns="http://www.w3.org/2000/svg">
<path d="M38.7539 9.27319H42.9168C44.1319 9.27319 45.2296 9.44579 46.2099 9.79097C47.204 10.1362 48.0463 10.6194 48.7367 11.2407C49.4408 11.8483 49.9793 12.5732 50.3521 13.4154C50.7387 14.2577 50.932 15.1759 50.932 16.17C50.932 17.1641 50.7387 18.0823 50.3521 18.9246C49.9793 19.7668 49.4408 20.4986 48.7367 21.1199C48.0463 21.7275 47.204 22.2038 46.2099 22.549C45.2296 22.8942 44.1319 23.0668 42.9168 23.0668H38.7539V9.27319ZM42.979 20.7471C43.7108 20.7471 44.3873 20.6436 45.0087 20.4365C45.63 20.2294 46.1616 19.9325 46.6034 19.5459C47.0591 19.1455 47.4112 18.6622 47.6597 18.0961C47.9082 17.53 48.0325 16.888 48.0325 16.17C48.0325 15.452 47.9082 14.81 47.6597 14.2439C47.4112 13.6778 47.0591 13.2014 46.6034 12.8148C46.1616 12.4144 45.63 12.1106 45.0087 11.9035C44.3873 11.6964 43.7108 11.5928 42.979 11.5928H41.6535V20.7471H42.979Z" fill="#24205E"/>
<path d="M67.9632 23.0668H64.9601L63.9867 20.1672H58.3118L57.3384 23.0668H54.3353L59.5752 9.27319H62.7233L67.9632 23.0668ZM61.1493 11.5928L59.0781 17.8683H63.2204L61.1493 11.5928Z" fill="#24205E"/>
<path d="M81.1504 9.27319V11.5928H77.3395V23.0668H74.44V11.5928H70.6291V9.27319H81.1504Z" fill="#24205E"/>
<path d="M97.4361 23.0668H94.433L93.4596 20.1672H87.7847L86.8113 23.0668H83.8082L89.0481 9.27319H92.1962L97.4361 23.0668ZM90.6221 11.5928L88.551 17.8683H92.6932L90.6221 11.5928Z" fill="#24205E"/>
<path d="M111.008 23.0668V17.2677H105.292V23.0668H102.392V9.27319H105.292V14.8652H111.008V9.27319H113.907V23.0668H111.008Z" fill="#24205E"/>
<path d="M119.92 9.27319H128.204V11.5721H122.819V14.9066H127.956V17.2055H122.819V20.7679H128.266V23.0668H119.92V9.27319Z" fill="#24205E"/>
<path d="M143.89 13.4775C143.89 14.4579 143.614 15.2863 143.062 15.9629C142.51 16.6256 141.716 17.1365 140.68 17.4955L145.34 23.0668H141.737L137.739 18.034H136.807V23.0668H133.908V9.27319H138.029C138.885 9.27319 139.672 9.36294 140.39 9.54244C141.108 9.70813 141.723 9.97047 142.234 10.3295C142.758 10.6746 143.166 11.1096 143.456 11.6343C143.745 12.1589 143.89 12.7734 143.89 13.4775ZM140.991 13.5397C140.991 12.8355 140.715 12.3246 140.162 12.0071C139.61 11.6895 138.892 11.5307 138.009 11.5307H136.807V15.8386H137.677C138.671 15.8386 139.472 15.6453 140.08 15.2587C140.687 14.8721 140.991 14.2991 140.991 13.5397Z" fill="#24205E"/>
<path d="M162.672 23.0668H159.669L158.696 20.1672H153.021L152.047 23.0668H149.044L154.284 9.27319H157.432L162.672 23.0668ZM155.858 11.5928L153.787 17.8683H157.929L155.858 11.5928Z" fill="#24205E"/>
<path d="M170.528 9.27319V20.7471H175.664V23.0668H167.628V9.27319H170.528Z" fill="#24205E"/>
<path d="M180.706 9.27319H184.869C186.084 9.27319 187.182 9.44579 188.162 9.79097C189.156 10.1362 189.998 10.6194 190.689 11.2407C191.393 11.8483 191.931 12.5732 192.304 13.4154C192.691 14.2577 192.884 15.1759 192.884 16.17C192.884 17.1641 192.691 18.0823 192.304 18.9246C191.931 19.7668 191.393 20.4986 190.689 21.1199C189.998 21.7275 189.156 22.2038 188.162 22.549C187.182 22.8942 186.084 23.0668 184.869 23.0668H180.706V9.27319ZM184.931 20.7471C185.663 20.7471 186.339 20.6436 186.961 20.4365C187.582 20.2294 188.114 19.9325 188.555 19.5459C189.011 19.1455 189.363 18.6622 189.612 18.0961C189.86 17.53 189.984 16.888 189.984 16.17C189.984 15.452 189.86 14.81 189.612 14.2439C189.363 13.6778 189.011 13.2014 188.555 12.8148C188.114 12.4144 187.582 12.1106 186.961 11.9035C186.339 11.6964 185.663 11.5928 184.931 11.5928H183.605V20.7471H184.931Z" fill="#24205E"/>
<path fill-rule="evenodd" clip-rule="evenodd" d="M2.99197 22.5179L2.9712 22.5919L2.96592 22.6111C2.89758 22.6964 2.83151 22.7852 2.76771 22.8773C1.40363 20.9609 0.628906 18.5506 0.628906 15.8477C0.628906 9.14555 5.37806 4.22876 12.1142 4.22876C14.3799 4.22876 16.4213 4.79772 18.1372 5.80049C18.1194 5.80702 18.1013 5.8133 18.0832 5.81957C18.0636 5.82633 18.0441 5.83308 18.0251 5.84013C18.0025 5.84843 17.9779 5.85825 17.9545 5.86807C17.711 5.96019 17.4856 6.05269 17.261 6.14556L17.1179 6.20446C16.9533 6.27166 16.7894 6.33924 16.6301 6.41098C16.402 6.51291 16.1857 6.61901 15.9758 6.72208L15.9048 6.75719L15.7462 6.83421C15.6013 6.90443 15.4563 6.97465 15.3158 7.04865C15.1184 7.15248 14.9273 7.26159 14.7363 7.37108L14.6291 7.43224L14.5675 7.46735L14.5415 7.48208L14.4112 7.5557L14.3977 7.5633C14.2924 7.62269 14.1868 7.68217 14.085 7.74409C14.0182 7.78426 13.954 7.82616 13.8899 7.868C13.8643 7.88476 13.8386 7.90151 13.8128 7.91814C13.2756 7.79997 12.7111 7.73126 12.1142 7.73126C7.56707 7.73126 4.67129 11.2002 4.67129 15.8477C4.67129 16.5443 4.74605 17.2107 4.87517 17.848C4.87202 17.8539 4.86875 17.86 4.86545 17.8661C4.85848 17.879 4.85137 17.8922 4.84497 17.905C4.77625 18.0394 4.70943 18.1719 4.64524 18.3029C4.58257 18.4298 4.52141 18.5551 4.46289 18.6786L4.4342 18.7405L4.41381 18.7839L4.39682 18.8198C4.38238 18.8508 4.36788 18.8818 4.35346 18.9126C4.33017 18.9623 4.30707 19.0116 4.28469 19.0603C4.23218 19.1756 4.18181 19.2891 4.13255 19.4001L4.12838 19.4095L4.11853 19.4321C4.06977 19.5437 4.02151 19.6542 3.97623 19.7614C3.92753 19.8762 3.88147 19.9875 3.83654 20.0978L3.81389 20.1537L3.8052 20.1752L3.7784 20.2416C3.75499 20.299 3.73196 20.356 3.71044 20.4108C3.67031 20.5126 3.63335 20.6098 3.59684 20.7058L3.59302 20.7158L3.56924 20.7785L3.5692 20.7786C3.54052 20.8548 3.51184 20.9311 3.48542 21.0028C3.45335 21.0903 3.42429 21.173 3.39523 21.2556L3.39519 21.2557L3.37178 21.3225C3.34724 21.3909 3.32345 21.4596 3.30193 21.5226C3.27437 21.6042 3.25059 21.6763 3.2268 21.7499L3.21019 21.7998C3.19169 21.8564 3.17319 21.913 3.15696 21.9636C3.13756 22.0255 3.12082 22.0809 3.10439 22.1352L3.09806 22.1562L3.07918 22.2177L3.04822 22.3204C3.02935 22.3846 3.015 22.4356 3.00027 22.488L2.99197 22.5179ZM19.6291 16.729L19.7057 16.7241C20.212 16.6988 20.7089 16.6406 21.2601 16.5425C22.3229 16.3537 23.1014 16.0713 23.5993 15.8485C23.5986 22.5504 18.8166 27.4668 12.1151 27.4668C9.35264 27.4668 6.92653 26.6373 5.02294 25.1992C5.03639 25.1773 5.05042 25.1539 5.06413 25.131C5.07236 25.1173 5.08046 25.1037 5.08825 25.0909C5.46127 24.4841 5.77992 23.9937 5.8626 23.8672C5.95548 23.7494 6.05024 23.6384 6.14501 23.5274C6.16187 23.5074 6.17878 23.4875 6.19569 23.4675C6.2295 23.4276 6.26331 23.3876 6.29678 23.3474C6.60901 22.9747 6.93748 22.6092 7.30068 22.2306C8.54243 23.3202 10.1753 23.9646 12.1151 23.9646C16.3335 23.9646 19.1677 20.9027 19.5196 16.735C19.524 16.7348 19.5286 16.7345 19.5332 16.7342C19.5494 16.7333 19.5659 16.7323 19.5789 16.732L19.6034 16.7305L19.6291 16.729Z" fill="#24205E"/>
<path fill-rule="evenodd" clip-rule="evenodd" d="M18.3642 6.74606C16.4852 7.45245 14.6873 8.39971 13.0068 9.61126C10.8446 11.1698 8.95688 13.1028 7.42933 15.2858C5.8123 17.5975 4.97376 20.2943 3.81998 22.8393C3.45641 23.6413 2.89046 24.4356 2.73038 25.3096C2.61523 25.9394 2.51896 26.8289 2.77796 27.4288C3.32464 26.6254 3.64744 25.6241 4.17223 24.789C4.72156 23.9154 5.33847 23.0847 6.01126 22.3025C7.33758 20.7602 8.88099 19.4037 10.5743 18.2771C11.7787 17.4755 13.0699 16.7884 14.4524 16.3618C15.5745 16.0152 16.7532 15.9227 17.9202 15.8642C19.0838 15.806 20.2561 15.7834 21.4042 15.5693C21.8131 15.493 22.2167 15.3896 22.6101 15.2544C22.8091 15.1861 23.0058 15.1098 23.1987 15.0249C23.2406 15.0064 23.688 14.7734 23.6929 14.7791C23.6291 14.747 23.563 14.6451 23.5128 14.5934C23.4456 14.5243 23.3784 14.4552 23.3116 14.3865L22.9091 13.9723C22.6316 13.6861 22.3537 13.4003 22.0759 13.1145L23.2489 12.8068L23.4195 12.7623L26.0341 12.0759L30.7855 5.26419C30.1501 5.20529 29.5328 5.16943 28.9257 5.14526C25.2892 4.99991 21.6994 5.4926 18.3642 6.74606Z" fill="#E41F32"/>
</svg>
