<svg width="320" height="248" viewBox="0 0 320 248" fill="none" xmlns="http://www.w3.org/2000/svg">
<g opacity="0.5">
<path d="M184.407 17.7567C187.152 23.5979 181.336 25.2524 174.673 28.3832C168.01 31.514 163.025 34.9355 160.28 29.0943C157.535 23.2532 155.308 11.6595 164.733 7.23047C174.483 2.64884 181.662 11.9156 184.407 17.7567Z" fill="#2F2E41"/>
<path d="M170.813 29.2442C175.767 29.2442 179.782 25.2285 179.782 20.2749C179.782 15.3213 175.767 11.3057 170.813 11.3057C165.859 11.3057 161.844 15.3213 161.844 20.2749C161.844 25.2285 165.859 29.2442 170.813 29.2442Z" fill="#FFB8B8"/>
<path d="M215.249 60.0514C214.938 59.646 214.628 59.248 214.314 58.8609C213.909 58.3569 213.501 57.8688 213.091 57.3965C208.442 52.0319 203.497 48.654 198.052 48.2925H198.045L197.965 48.2852L187.115 58.8609L183.427 62.4543L183.507 62.6515L185.497 67.607H220.369C218.797 64.9994 217.088 62.4772 215.249 60.0514Z" fill="#2F2E41"/>
<path d="M161.06 23.8855L164.27 22.3768L163.823 17.7451L165.97 21.5781L167.505 20.857L167.244 18.1551L168.496 20.3911L179.899 15.0329C178.828 12.7538 176.895 10.9935 174.527 10.1392C172.158 9.28496 169.547 9.40669 167.267 10.4776L165.615 11.2542C163.336 12.3252 161.576 14.2576 160.721 16.6264C159.867 18.9953 159.989 21.6065 161.06 23.8855Z" fill="#2F2E41"/>
<path d="M235.37 186.692H48.09C46.4925 186.691 44.9609 186.055 43.8313 184.926C42.7017 183.796 42.0663 182.264 42.0645 180.667V68.1342C42.0658 66.9638 42.5312 65.8418 43.3588 65.0142C44.1864 64.1866 45.3084 63.7211 46.4788 63.7197H236.905C238.096 63.7211 239.237 64.1947 240.079 65.0366C240.921 65.8784 241.394 67.0199 241.396 68.2105V180.667C241.394 182.264 240.758 183.796 239.629 184.926C238.499 186.055 236.968 186.691 235.37 186.692Z" fill="#F2F2F2"/>
<path d="M53.9328 180.668H229.527C231.077 180.668 232.563 180.052 233.659 178.956C234.754 177.86 235.37 176.374 235.37 174.825V79.3117C235.37 77.762 234.754 76.2759 233.659 75.1801C232.563 74.0843 231.077 73.4688 229.527 73.4688H53.9328C52.3831 73.4688 50.897 74.0843 49.8012 75.1801C48.7054 76.2759 48.0898 77.762 48.0898 79.3117V174.825C48.0898 176.374 48.7054 177.86 49.8012 178.956C50.897 180.052 52.3831 180.668 53.9328 180.668Z" fill="white"/>
<path d="M241.312 67.7901H41.9805V64.7224C41.9828 63.1196 42.6208 61.5831 43.7545 60.4501C44.8882 59.3171 46.4251 58.68 48.0279 58.6787H235.265C236.868 58.68 238.405 59.3171 239.538 60.4501C240.672 61.5831 241.31 63.1196 241.312 64.7224V67.7901Z" fill="#3931D8"/>
<path d="M52.9705 64.8072C53.8344 64.8072 54.5347 64.1068 54.5347 63.2429C54.5347 62.379 53.8344 61.6787 52.9705 61.6787C52.1066 61.6787 51.4062 62.379 51.4062 63.2429C51.4062 64.1068 52.1066 64.8072 52.9705 64.8072Z" fill="white"/>
<path d="M58.908 64.8072C59.7719 64.8072 60.4722 64.1068 60.4722 63.2429C60.4722 62.379 59.7719 61.6787 58.908 61.6787C58.0441 61.6787 57.3438 62.379 57.3438 63.2429C57.3438 64.1068 58.0441 64.8072 58.908 64.8072Z" fill="white"/>
<path d="M64.8455 64.8072C65.7094 64.8072 66.4097 64.1068 66.4097 63.2429C66.4097 62.379 65.7094 61.6787 64.8455 61.6787C63.9816 61.6787 63.2812 62.379 63.2812 63.2429C63.2812 64.1068 63.9816 64.8072 64.8455 64.8072Z" fill="white"/>
<path d="M147.209 159.954H131.506C130.587 159.953 129.705 159.587 129.054 158.937C128.404 158.286 128.038 157.404 128.037 156.485V140.782C128.038 139.862 128.404 138.98 129.054 138.33C129.705 137.679 130.587 137.314 131.506 137.312H147.209C148.129 137.314 149.011 137.679 149.661 138.33C150.312 138.98 150.677 139.862 150.678 140.782V156.485C150.677 157.404 150.312 158.286 149.661 158.937C149.011 159.587 148.129 159.953 147.209 159.954ZM131.506 138.043C130.78 138.044 130.084 138.332 129.571 138.846C129.057 139.359 128.768 140.056 128.767 140.782V156.485C128.768 157.211 129.057 157.907 129.571 158.42C130.084 158.934 130.78 159.223 131.506 159.224H147.209C147.935 159.223 148.632 158.934 149.145 158.42C149.658 157.907 149.947 157.211 149.948 156.485V140.782C149.947 140.056 149.658 139.359 149.145 138.846C148.632 138.332 147.935 138.044 147.209 138.043H131.506Z" fill="#CCCCCC"/>
<path d="M184.458 159.954H168.755C167.836 159.953 166.954 159.587 166.303 158.937C165.653 158.286 165.287 157.404 165.286 156.485V140.782C165.287 139.862 165.653 138.98 166.303 138.33C166.954 137.679 167.836 137.314 168.755 137.312H184.458C185.378 137.314 186.26 137.679 186.91 138.33C187.561 138.98 187.926 139.862 187.928 140.782V156.485C187.926 157.404 187.561 158.286 186.91 158.937C186.26 159.587 185.378 159.953 184.458 159.954ZM168.755 138.043C168.029 138.044 167.333 138.332 166.82 138.846C166.306 139.359 166.017 140.056 166.016 140.782V156.485C166.017 157.211 166.306 157.907 166.82 158.42C167.333 158.934 168.029 159.223 168.755 159.224H184.458C185.184 159.223 185.881 158.934 186.394 158.42C186.908 157.907 187.196 157.211 187.197 156.485V140.782C187.196 140.056 186.908 139.359 186.394 138.846C185.881 138.332 185.184 138.044 184.458 138.043H168.755Z" fill="#CCCCCC"/>
<path d="M109.96 159.954H94.2573C93.3375 159.953 92.4558 159.587 91.8054 158.937C91.155 158.286 90.7891 157.404 90.7881 156.485V140.782C90.7891 139.862 91.155 138.98 91.8054 138.33C92.4558 137.679 93.3375 137.314 94.2573 137.312H109.96C110.88 137.314 111.762 137.679 112.412 138.33C113.063 138.98 113.428 139.862 113.429 140.782V156.485C113.428 157.404 113.063 158.286 112.412 158.937C111.762 159.587 110.88 159.953 109.96 159.954ZM94.2573 138.043C93.5312 138.044 92.835 138.332 92.3215 138.846C91.8081 139.359 91.5193 140.056 91.5185 140.782V156.485C91.5193 157.211 91.8081 157.907 92.3215 158.42C92.835 158.934 93.5312 159.223 94.2573 159.224H109.96C110.686 159.223 111.383 158.934 111.896 158.42C112.409 157.907 112.698 157.211 112.699 156.485V140.782C112.698 140.056 112.409 139.359 111.896 138.846C111.383 138.332 110.686 138.044 109.96 138.043H94.2573Z" fill="#CCCCCC"/>
<path d="M280.762 242.694L276.285 242.694L274.155 225.425L280.763 225.425L280.762 242.694Z" fill="#FFB8B8"/>
<path d="M281.904 247.033L267.468 247.033V246.85C267.468 246.112 267.613 245.382 267.895 244.7C268.178 244.018 268.592 243.399 269.113 242.877C269.635 242.355 270.255 241.941 270.936 241.659C271.618 241.377 272.349 241.231 273.087 241.231H273.087L281.904 241.232L281.904 247.033Z" fill="#2F2E41"/>
<path d="M299.021 242.694L294.544 242.694L292.414 225.425L299.022 225.425L299.021 242.694Z" fill="#FFB8B8"/>
<path d="M300.163 247.033L285.728 247.033V246.85C285.728 246.112 285.873 245.382 286.155 244.7C286.438 244.018 286.851 243.399 287.373 242.877C287.895 242.355 288.514 241.941 289.196 241.659C289.878 241.377 290.609 241.231 291.346 241.231H291.347L300.164 241.232L300.163 247.033Z" fill="#2F2E41"/>
<path d="M297.679 235.208L293.532 233.947C293.223 233.853 292.949 233.67 292.743 233.421C292.537 233.172 292.41 232.868 292.376 232.547L288.51 195.909C288.507 195.865 288.488 195.824 288.455 195.793C288.423 195.763 288.38 195.746 288.336 195.746C288.291 195.742 288.247 195.755 288.212 195.783C288.177 195.811 288.155 195.851 288.149 195.895L281.674 231.391C281.635 231.606 281.553 231.812 281.433 231.995C281.313 232.178 281.158 232.336 280.977 232.458C280.795 232.581 280.591 232.666 280.376 232.708C280.162 232.751 279.94 232.75 279.726 232.706L274.427 231.614C274.038 231.533 273.692 231.314 273.451 230.998C273.211 230.682 273.093 230.289 273.119 229.893L277.057 171.715L303.766 168.833L299.797 233.736C299.772 234.153 299.588 234.545 299.284 234.832C298.98 235.118 298.578 235.279 298.16 235.28C297.997 235.28 297.835 235.255 297.679 235.208Z" fill="#2F2E41"/>
<path d="M297.654 121.05C302.607 121.05 306.623 117.034 306.623 112.081C306.623 107.127 302.607 103.111 297.654 103.111C292.7 103.111 288.685 107.127 288.685 112.081C288.685 117.034 292.7 121.05 297.654 121.05Z" fill="#FFB8B8"/>
<path d="M277.017 172.057L282.808 135.593C283.116 133.654 283.833 131.803 284.912 130.163C285.991 128.523 287.407 127.132 289.065 126.081C290.724 125.031 292.587 124.346 294.531 124.072C296.474 123.798 298.454 123.941 300.339 124.491C303.633 125.444 306.454 127.591 308.25 130.512C310.047 133.434 310.689 136.92 310.053 140.29L303.994 172.854L277.017 172.057Z" fill="#3931D8"/>
<path d="M300.13 178.58C300.578 178.284 300.956 177.894 301.237 177.436C301.517 176.979 301.694 176.465 301.755 175.932C301.816 175.399 301.759 174.858 301.589 174.349C301.418 173.84 301.138 173.375 300.768 172.986L306.756 161.391L300.013 162.11L295.361 173.011C294.748 173.675 294.401 174.542 294.384 175.445C294.368 176.349 294.684 177.228 295.272 177.914C295.859 178.601 296.679 179.048 297.574 179.17C298.47 179.293 299.379 179.083 300.13 178.58Z" fill="#FFB8B8"/>
<path d="M301.412 170.941C301.081 170.894 300.772 170.748 300.526 170.521L298.235 168.404C297.987 168.174 297.816 167.874 297.745 167.544C297.674 167.214 297.706 166.87 297.836 166.558L302.415 155.705L301.765 134.262C301.859 133.573 302.087 132.909 302.437 132.307C302.787 131.706 303.253 131.18 303.806 130.759C304.36 130.338 304.991 130.03 305.664 129.853C306.336 129.676 307.037 129.633 307.727 129.727C308.416 129.821 309.08 130.05 309.681 130.401C310.281 130.752 310.807 131.217 311.228 131.772C311.648 132.326 311.956 132.957 312.132 133.63C312.308 134.303 312.35 135.004 312.256 135.693L313.366 149.173C313.704 153.264 312.544 157.338 310.102 160.638L302.962 170.291C302.825 170.477 302.65 170.631 302.449 170.745C302.248 170.858 302.025 170.928 301.796 170.95C301.668 170.962 301.539 170.959 301.412 170.941Z" fill="#3931D8"/>
<path d="M246.003 107.194C246.1 107.722 246.313 108.222 246.625 108.659C246.936 109.096 247.34 109.459 247.808 109.723C248.275 109.987 248.795 110.146 249.33 110.187C249.865 110.229 250.403 110.152 250.906 109.963L259.249 119.998L261.215 113.508L252.991 104.974C252.618 104.151 251.955 103.493 251.13 103.126C250.304 102.758 249.372 102.706 248.511 102.98C247.649 103.254 246.918 103.834 246.456 104.611C245.994 105.387 245.832 106.307 246.003 107.194Z" fill="#FFB8B8"/>
<path d="M252.538 111.353C252.71 111.067 252.966 110.839 253.27 110.701L256.113 109.417C256.421 109.279 256.764 109.238 257.096 109.301C257.428 109.364 257.732 109.528 257.968 109.77L266.177 118.217L286.176 125.98C286.775 126.334 287.298 126.803 287.715 127.36C288.132 127.917 288.435 128.551 288.607 129.225C288.779 129.899 288.817 130.6 288.717 131.289C288.618 131.978 288.384 132.64 288.029 133.238C287.673 133.836 287.204 134.358 286.646 134.775C286.089 135.191 285.455 135.494 284.781 135.665C284.106 135.836 283.405 135.873 282.717 135.773C282.028 135.673 281.366 135.438 280.768 135.082L267.922 130.849C264.023 129.565 260.724 126.908 258.637 123.373L252.532 113.035C252.415 112.836 252.34 112.614 252.314 112.385C252.288 112.156 252.311 111.923 252.38 111.703C252.419 111.581 252.472 111.463 252.538 111.353Z" fill="#3931D8"/>
<path opacity="0.1" d="M304.929 143.182L304.563 154.868L297.836 166.557L303.453 153.53L304.929 143.182Z" fill="black"/>
<path d="M296.626 113.766C296.063 113.84 295.492 113.706 295.02 113.39C294.548 113.074 294.206 112.598 294.059 112.049C293.917 111.418 293.605 110.837 293.158 110.369C292.711 109.901 292.145 109.564 291.521 109.393C289.875 109.017 287.864 109.792 286.659 108.545C286.401 108.26 286.214 107.918 286.114 107.548C286.014 107.177 286.003 106.787 286.083 106.411C286.306 105.2 287.172 104.285 288.115 103.553C290.1 102.02 292.501 101.122 295.005 100.978C296.301 100.941 297.597 101.005 298.883 101.171C300.23 101.256 301.561 101.499 302.85 101.896C304.319 102.45 305.625 103.366 306.646 104.558C307.668 105.751 308.372 107.181 308.694 108.718C308.989 110.259 308.943 111.846 308.561 113.368C308.179 114.89 307.47 116.31 306.482 117.53C305.3 119.002 303.775 120.163 302.041 120.911C301.628 121.106 301.155 121.13 300.724 120.978C299.644 120.548 299.821 119.211 300.313 118.318C300.84 117.363 301.651 116.439 301.227 115.277C301.015 114.738 300.607 114.299 300.085 114.048C299.012 113.5 297.811 113.63 296.657 113.763L296.626 113.766Z" fill="#2F2E41"/>
<path d="M243.005 118.832H131.989C130.392 118.83 128.86 118.195 127.731 117.065C126.601 115.935 125.966 114.404 125.964 112.806V89.0695C125.966 87.472 126.601 85.9404 127.731 84.8108C128.86 83.6812 130.392 83.0458 131.989 83.0439H243.005C244.603 83.0458 246.134 83.6812 247.264 84.8108C248.393 85.9404 249.029 87.472 249.031 89.0695V112.806C249.029 114.404 248.393 115.935 247.264 117.065C246.134 118.195 244.603 118.83 243.005 118.832Z" fill="white"/>
<path d="M243.005 119.014H131.989C130.343 119.013 128.765 118.358 127.602 117.194C126.438 116.03 125.783 114.452 125.781 112.806V89.0694C125.783 87.4235 126.438 85.8455 127.602 84.6817C128.765 83.5178 130.343 82.8632 131.989 82.8613H243.005C244.651 82.8632 246.229 83.5178 247.393 84.6817C248.557 85.8455 249.211 87.4235 249.213 89.0694V112.806C249.211 114.452 248.557 116.03 247.393 117.194C246.229 118.358 244.651 119.013 243.005 119.014ZM131.989 83.5917C130.537 83.5933 129.145 84.171 128.118 85.1979C127.091 86.2248 126.513 87.6172 126.512 89.0694V112.806C126.513 114.259 127.091 115.651 128.118 116.678C129.145 117.705 130.537 118.282 131.989 118.284H243.005C244.457 118.282 245.85 117.705 246.877 116.678C247.904 115.651 248.481 114.259 248.483 112.806V89.0694C248.481 87.6172 247.904 86.2248 246.877 85.1979C245.85 84.171 244.457 83.5933 243.005 83.5917H131.989Z" fill="#3F3D56"/>
<path d="M319.635 247.558H249.519C249.423 247.558 249.33 247.52 249.261 247.452C249.193 247.383 249.154 247.29 249.154 247.193C249.154 247.096 249.193 247.004 249.261 246.935C249.33 246.867 249.423 246.828 249.519 246.828H319.635C319.732 246.828 319.824 246.867 319.893 246.935C319.961 247.004 320 247.096 320 247.193C320 247.29 319.961 247.383 319.893 247.452C319.824 247.52 319.732 247.558 319.635 247.558Z" fill="#CCCCCC"/>
<path d="M220.591 54.1725C220.3 53.6986 219.914 53.289 219.459 52.9688C219.004 52.6486 218.488 52.4245 217.944 52.3101C217.744 52.2681 217.541 52.2425 217.338 52.2334L189.514 27.3571C188.968 26.7954 188.239 26.447 187.458 26.3748C187.304 26.3571 187.149 26.3522 186.994 26.3601C186.353 26.3893 185.733 26.6049 185.212 26.9806C184.69 27.3562 184.29 27.8756 184.059 28.4753C183.828 29.075 183.777 29.729 183.912 30.3573C184.046 30.9856 184.361 31.561 184.818 32.0132L195.47 41.2998L212.963 56.5462C212.977 56.8334 213.02 57.1184 213.09 57.3971C213.3 58.2045 213.75 58.9292 214.38 59.475C215.011 60.0209 215.793 60.3622 216.622 60.4537C217.378 60.542 218.144 60.4154 218.831 60.0885C219.376 59.8336 219.86 59.4635 220.248 59.0039C220.288 58.9564 220.325 58.9126 220.361 58.8615C220.872 58.196 221.168 57.3907 221.209 56.5529C221.25 55.7151 221.034 54.8848 220.591 54.1725Z" fill="#FFB8B8"/>
<path d="M173.001 78.147L172.742 67.6078L172.523 58.8616L172.373 52.7412L172.077 40.8106C172.019 40.1719 171.775 39.5639 171.377 39.0611C170.979 38.5582 170.443 38.1822 169.834 37.9789C169.226 37.7756 168.572 37.7538 167.951 37.9162C167.331 38.0786 166.771 38.4182 166.34 38.8934C166.239 39.002 166.147 39.1193 166.066 39.244C165.617 39.8879 165.414 40.6723 165.496 41.4533L166.147 58.8616L166.472 67.6078L166.888 78.7641C166.768 78.9281 166.659 79.1001 166.563 79.2791C166.303 79.7715 166.146 80.3116 166.102 80.8665C166.057 81.4215 166.126 81.9797 166.304 82.5073C166.489 83.0606 166.79 83.5682 167.186 83.9969C167.582 84.4256 168.064 84.7655 168.601 84.9942C169.138 85.223 169.717 85.3354 170.3 85.324C170.884 85.3127 171.458 85.1779 171.986 84.9284C172.599 84.6387 173.13 84.2025 173.535 83.6584C173.939 83.1143 174.203 82.479 174.303 81.8087C174.403 81.1383 174.337 80.4536 174.11 79.815C173.883 79.1763 173.502 78.6035 173.001 78.147Z" fill="#FFB8B8"/>
<path d="M198.052 48.293L195.47 41.2997L191.293 29.9717C190.991 29.1475 190.508 28.4018 189.879 27.7898C189.25 27.1779 188.491 26.7154 187.659 26.4368C187.593 26.4149 187.524 26.393 187.458 26.3747C186.652 26.13 185.802 26.0627 184.968 26.1774C184.133 26.2922 183.333 26.5862 182.623 27.0393L168.553 35.9644C167.264 36.7799 166.343 38.0644 165.984 39.5465C165.625 41.0286 165.856 42.5922 166.628 43.9071C168.388 46.9498 170.305 49.8984 172.372 52.7409C174.012 54.9722 177.065 55.2096 177.595 58.8614H187.969L198.472 49.4324L198.052 48.293Z" fill="#CCCCCC"/>
<path d="M36.9434 133.761C41.6167 133.761 45.4053 129.972 45.4053 125.299C45.4053 120.625 41.6167 116.837 36.9434 116.837C32.27 116.837 28.4814 120.625 28.4814 125.299C28.4814 129.972 32.27 133.761 36.9434 133.761Z" fill="#A0616A"/>
<path d="M57.7176 119.475C57.801 119.541 57.8818 119.611 57.9601 119.686C58.3488 120.052 58.6558 120.496 58.8609 120.989C59.066 121.482 59.1646 122.013 59.1502 122.547C59.1358 123.081 59.0088 123.606 58.7774 124.087C58.5461 124.568 58.2157 124.995 57.8078 125.34C57.7127 125.42 57.6135 125.495 57.5106 125.564L58.0833 144.899C58.0996 145.532 57.9114 146.153 57.5466 146.671C57.1818 147.188 56.6599 147.574 56.0583 147.772L56.0234 147.779L40.3247 149.451C39.8979 149.496 39.4663 149.457 39.0549 149.334C38.6435 149.212 38.2604 149.009 37.9277 148.738C37.5951 148.467 37.3194 148.133 37.1167 147.754C36.914 147.376 36.7882 146.961 36.7467 146.534C36.7052 146.107 36.7487 145.676 36.8747 145.265C37.0007 144.855 37.2068 144.474 37.481 144.144C37.7552 143.813 38.0921 143.541 38.4722 143.341C38.8524 143.142 39.2682 143.02 39.6958 142.982L50.8866 141.997L52.8219 125.253C52.6953 125.141 52.5767 125.02 52.4671 124.891C51.8603 124.173 51.5421 123.255 51.5741 122.316C51.6062 121.376 51.9864 120.482 52.6408 119.807C53.2951 119.132 54.1771 118.724 55.1152 118.662C56.0534 118.601 56.9809 118.891 57.7176 119.475Z" fill="#A0616A"/>
<path d="M50.8806 243.067H55.1047L57.1139 226.775H50.8799L50.8806 243.067Z" fill="#A0616A"/>
<path d="M49.8027 241.689L58.1209 241.688C58.817 241.688 59.5067 241.826 60.1499 242.092C60.793 242.358 61.3774 242.749 61.8696 243.241C62.3619 243.733 62.7524 244.318 63.0188 244.961C63.2852 245.604 63.4223 246.293 63.4223 246.989V247.162L49.803 247.162L49.8027 241.689Z" fill="#2F2E41"/>
<path d="M8.89844 237.228L12.5276 239.389L22.5895 226.419L17.233 223.229L8.89844 237.228Z" fill="#A0616A"/>
<path d="M8.67801 235.491L15.8252 239.747C16.4234 240.103 16.9458 240.573 17.3621 241.131C17.7784 241.689 18.0808 242.324 18.2519 242.999C18.423 243.673 18.4595 244.375 18.3594 245.064C18.2592 245.753 18.0243 246.415 17.6682 247.014L17.5801 247.162L5.87793 240.194L8.67801 235.491Z" fill="#2F2E41"/>
<path d="M56.1012 237.314H51.3714C50.9884 237.314 50.6188 237.173 50.3341 236.917C50.0493 236.661 49.8696 236.308 49.8298 235.927L45.0615 191.106C45.0495 190.993 45.0007 190.887 44.9226 190.805C44.8445 190.722 44.7415 190.668 44.6295 190.65C44.5175 190.632 44.4026 190.651 44.3027 190.705C44.2028 190.759 44.1233 190.844 44.0766 190.947L35.4745 209.995L20.2451 234.828C20.0479 235.147 19.7428 235.383 19.3854 235.495C19.028 235.607 18.6424 235.586 18.299 235.437L12.215 232.76C12.0138 232.671 11.8338 232.541 11.6868 232.378C11.5398 232.214 11.4292 232.021 11.3624 231.812C11.2956 231.603 11.2741 231.381 11.2993 231.163C11.3244 230.945 11.3957 230.734 11.5084 230.545L25.5085 207.104L29.8022 187.353C28.4518 178.787 34.241 166.053 34.2997 165.925L34.3284 165.863L50.2751 159.63L50.355 159.728C56.6439 180.366 60.4761 202.576 57.6465 235.893C57.6116 236.28 57.434 236.639 57.1483 236.902C56.8626 237.165 56.4892 237.312 56.1012 237.314Z" fill="#2F2E41"/>
<path d="M33.686 167.949L33.6117 167.793C33.5763 167.718 30.0304 160.24 27.297 152.247C26.7717 150.701 26.5731 149.063 26.7138 147.437C26.8545 145.81 27.3315 144.231 28.1145 142.798C28.9077 141.351 29.9928 140.084 31.3011 139.078C32.6094 138.072 34.1124 137.349 35.7149 136.954C38.4969 136.287 41.4258 136.642 43.9681 137.953C46.5104 139.265 48.4968 141.447 49.5655 144.1C51.7337 149.522 51.0427 155.309 50.3924 159.861L50.3794 159.952L50.2965 159.991L33.686 167.949Z" fill="#3F3D56"/>
<path d="M47.2041 120.519H33.7676V114.662C36.7167 113.49 39.6026 112.494 41.3471 114.662C42.9005 114.662 44.3902 115.279 45.4886 116.377C46.587 117.476 47.2041 118.966 47.2041 120.519Z" fill="#2F2E41"/>
<path d="M33.0231 113.629C24.9905 113.629 22.7422 123.697 22.7422 129.378C22.7422 132.545 24.1748 133.678 26.426 134.062L27.221 129.822L29.0831 134.244C29.7155 134.247 30.3798 134.235 31.0685 134.222L31.6999 132.922L33.1077 134.199C38.7465 134.207 43.3039 135.029 43.3039 129.378C43.3039 123.697 41.3321 113.629 33.0231 113.629Z" fill="#2F2E41"/>
<path d="M70.4804 247.558H0.365184C0.268331 247.558 0.175445 247.52 0.10696 247.452C0.0384743 247.383 0 247.29 0 247.193C0 247.096 0.0384743 247.004 0.10696 246.935C0.175445 246.867 0.268331 246.828 0.365184 246.828H70.4804C70.5773 246.828 70.6702 246.867 70.7387 246.935C70.8071 247.004 70.8456 247.096 70.8456 247.193C70.8456 247.29 70.8071 247.383 70.7387 247.452C70.6702 247.52 70.5773 247.558 70.4804 247.558Z" fill="#CCCCCC"/>
<path d="M71.7991 127.414H56.0962C55.1764 127.413 54.2946 127.047 53.6442 126.397C52.9939 125.746 52.628 124.864 52.627 123.945V108.242C52.628 107.322 52.9939 106.44 53.6442 105.79C54.2946 105.139 55.1764 104.774 56.0962 104.772H71.7991C72.7189 104.774 73.6007 105.139 74.2511 105.79C74.9014 106.44 75.2673 107.322 75.2683 108.242V123.945C75.2673 124.864 74.9014 125.746 74.2511 126.397C73.6007 127.047 72.7189 127.413 71.7991 127.414Z" fill="white"/>
<path d="M71.7991 127.414H56.0962C55.1764 127.413 54.2946 127.047 53.6442 126.397C52.9939 125.746 52.628 124.864 52.627 123.945V108.242C52.628 107.322 52.9939 106.44 53.6442 105.79C54.2946 105.139 55.1764 104.774 56.0962 104.772H71.7991C72.7189 104.774 73.6007 105.139 74.2511 105.79C74.9014 106.44 75.2673 107.322 75.2683 108.242V123.945C75.2673 124.864 74.9014 125.746 74.2511 126.397C73.6007 127.047 72.7189 127.413 71.7991 127.414ZM56.0962 105.503C55.37 105.504 54.6739 105.792 54.1604 106.306C53.647 106.819 53.3581 107.516 53.3573 108.242V123.945C53.3581 124.671 53.647 125.367 54.1604 125.88C54.6739 126.394 55.37 126.683 56.0962 126.683H71.7991C72.5252 126.683 73.2214 126.394 73.7349 125.88C74.2483 125.367 74.5372 124.671 74.538 123.945V108.242C74.5372 107.516 74.2483 106.819 73.7349 106.306C73.2214 105.792 72.5252 105.504 71.7991 105.503H56.0962Z" fill="#3F3D56"/>
<path d="M68.7268 124.898C68.7779 124.991 68.8251 125.087 68.8683 125.186C69.0845 125.674 69.1951 126.203 69.1928 126.737C69.1904 127.271 69.0753 127.799 68.8549 128.285C68.6345 128.771 68.3138 129.206 67.9138 129.56C67.5138 129.914 67.0435 130.179 66.5339 130.338C66.4153 130.375 66.2948 130.405 66.173 130.429L59.1982 148.471C58.9676 149.061 58.5531 149.561 58.0161 149.896C57.4791 150.231 56.8482 150.385 56.2171 150.333L56.1821 150.327L41.0647 145.776C40.6537 145.652 40.2713 145.448 39.9395 145.176C39.6078 144.903 39.3333 144.568 39.1319 144.189C38.9305 143.81 38.8062 143.395 38.7661 142.967C38.7261 142.54 38.7711 142.109 38.8986 141.699C39.0261 141.289 39.2335 140.908 39.5089 140.579C39.7843 140.25 40.1222 139.979 40.5031 139.781C40.884 139.583 41.3003 139.462 41.7281 139.426C42.1558 139.39 42.5864 139.439 42.9951 139.57L53.6914 143.004L61.9725 128.323C61.8993 128.171 61.8369 128.013 61.7858 127.852C61.5053 126.955 61.5682 125.985 61.9624 125.132C62.3566 124.278 63.0539 123.602 63.919 123.234C64.784 122.865 65.7551 122.832 66.6435 123.139C67.532 123.447 68.2744 124.073 68.7268 124.898Z" fill="#A0616A"/>
<path d="M95.8238 153.169C95.6505 153.169 95.4811 153.117 95.3371 153.021C95.193 152.924 95.0806 152.787 95.0142 152.627C94.9478 152.466 94.9303 152.289 94.9639 152.119C94.9975 151.949 95.0808 151.792 95.2031 151.669L99.6577 147.19C99.727 147.119 99.8096 147.064 99.9005 147.026C99.9914 146.988 100.089 146.969 100.187 146.969H100.188C100.286 146.969 100.384 146.988 100.474 147.026C100.565 147.064 100.648 147.119 100.717 147.189L102.783 149.26C102.825 149.302 102.874 149.336 102.929 149.358C102.983 149.381 103.042 149.393 103.101 149.392C103.16 149.393 103.219 149.381 103.273 149.358C103.328 149.336 103.377 149.302 103.419 149.26L106.336 146.331C106.349 146.317 106.36 146.3 106.368 146.282C106.376 146.264 106.379 146.244 106.379 146.224C106.379 146.205 106.375 146.185 106.368 146.167C106.36 146.149 106.349 146.132 106.335 146.118L105.392 145.174C105.329 145.111 105.286 145.03 105.268 144.943C105.251 144.856 105.26 144.765 105.294 144.683C105.328 144.6 105.385 144.53 105.459 144.48C105.533 144.431 105.62 144.404 105.709 144.404H109.061C109.18 144.404 109.294 144.452 109.378 144.536C109.463 144.621 109.51 144.735 109.51 144.855V148.214C109.51 148.303 109.484 148.39 109.435 148.464C109.385 148.538 109.315 148.596 109.233 148.63C109.151 148.664 109.061 148.673 108.973 148.656C108.886 148.638 108.806 148.595 108.743 148.532L107.798 147.585C107.784 147.571 107.768 147.56 107.75 147.552C107.731 147.545 107.712 147.541 107.692 147.541C107.673 147.541 107.653 147.545 107.635 147.552C107.617 147.56 107.6 147.571 107.586 147.585L103.637 151.543C103.567 151.612 103.485 151.668 103.394 151.706C103.303 151.743 103.206 151.763 103.107 151.762C103.009 151.763 102.911 151.743 102.821 151.706C102.73 151.668 102.647 151.612 102.578 151.542L100.511 149.47C100.425 149.388 100.312 149.342 100.193 149.342C100.075 149.342 99.9612 149.388 99.8756 149.47L96.4436 152.911C96.3624 152.993 96.2658 153.058 96.1594 153.102C96.053 153.146 95.9389 153.169 95.8238 153.169Z" fill="#3931D8"/>
<path d="M144.36 153.169C143.96 153.169 143.57 153.05 143.238 152.828C142.905 152.606 142.646 152.29 142.493 151.92C142.34 151.55 142.3 151.143 142.378 150.75C142.455 150.358 142.647 149.997 142.93 149.713C143.212 149.43 143.571 149.237 143.963 149.159C144.355 149.08 144.761 149.12 145.13 149.273C145.499 149.426 145.814 149.685 146.036 150.018C146.258 150.351 146.377 150.742 146.377 151.143C146.377 151.68 146.165 152.195 145.787 152.574C145.408 152.954 144.895 153.168 144.36 153.169ZM139.652 153.169C139.117 153.168 138.604 152.955 138.226 152.575C137.848 152.196 137.635 151.682 137.634 151.146V146.425C137.635 145.889 137.848 145.375 138.226 144.996C138.604 144.617 139.117 144.404 139.652 144.404C140.187 144.404 140.7 144.617 141.078 144.996C141.456 145.375 141.669 145.889 141.67 146.425V151.146C141.669 151.682 141.456 152.196 141.078 152.575C140.7 152.955 140.187 153.168 139.652 153.169ZM134.946 153.169C134.411 153.168 133.897 152.955 133.519 152.575C133.14 152.195 132.927 151.681 132.927 151.144V149.258C132.927 148.721 133.139 148.206 133.518 147.826C133.897 147.447 134.41 147.233 134.946 147.233C135.481 147.233 135.995 147.447 136.374 147.826C136.752 148.206 136.965 148.721 136.965 149.258V151.144C136.964 151.681 136.751 152.195 136.373 152.575C135.994 152.955 135.481 153.168 134.946 153.169Z" fill="#3931D8"/>
<path d="M178.575 101.86L169.628 99.6689L160.316 102.773L150.821 104.964" stroke="#3F3D56"/>
<path d="M181.335 112.998H176.18C176.04 112.998 175.906 112.943 175.808 112.846C175.709 112.749 175.653 112.617 175.653 112.479V105.482C175.653 105.345 175.709 105.213 175.808 105.116C175.906 105.019 176.04 104.964 176.18 104.964H181.335C181.474 104.964 181.608 105.019 181.707 105.116C181.806 105.213 181.861 105.345 181.861 105.482V112.479C181.861 112.617 181.806 112.749 181.707 112.846C181.608 112.943 181.474 112.998 181.335 112.998Z" fill="#E6E6E6"/>
<path d="M190.465 112.998H185.31C185.17 112.998 185.036 112.943 184.938 112.847C184.839 112.75 184.783 112.619 184.783 112.482V98.9068C184.783 98.7699 184.839 98.6387 184.938 98.542C185.036 98.4452 185.17 98.3908 185.31 98.3906H190.465C190.604 98.3908 190.738 98.4452 190.837 98.542C190.936 98.6387 190.991 98.7699 190.991 98.9068V112.482C190.991 112.619 190.936 112.75 190.837 112.847C190.738 112.943 190.604 112.998 190.465 112.998Z" fill="#E6E6E6"/>
<path d="M199.625 112.998H194.773C194.642 112.998 194.516 112.943 194.423 112.846C194.33 112.749 194.278 112.617 194.277 112.479V105.482C194.278 105.345 194.33 105.213 194.423 105.116C194.516 105.019 194.642 104.964 194.773 104.964H199.625C199.756 104.964 199.882 105.019 199.975 105.116C200.068 105.213 200.12 105.345 200.12 105.482V112.479C200.12 112.617 200.068 112.749 199.975 112.846C199.882 112.943 199.756 112.998 199.625 112.998Z" fill="#E6E6E6"/>
<path d="M208.755 112.998H203.903C203.774 113.001 203.65 112.951 203.557 112.859C203.464 112.767 203.41 112.641 203.407 112.507V96.3264C203.41 96.193 203.464 96.0665 203.557 95.9744C203.65 95.8823 203.774 95.8322 203.903 95.8351H208.755C208.883 95.8322 209.007 95.8823 209.1 95.9744C209.193 96.0665 209.247 96.193 209.25 96.3264V112.507C209.247 112.641 209.193 112.767 209.1 112.859C209.007 112.951 208.883 113.001 208.755 112.998Z" fill="#E6E6E6"/>
<path d="M153.581 112.998H148.426C148.286 112.998 148.153 112.975 148.054 112.934C147.955 112.893 147.9 112.837 147.899 112.779V107.009C147.9 106.951 147.955 106.895 148.054 106.854C148.153 106.813 148.286 106.79 148.426 106.79H153.581C153.721 106.79 153.854 106.813 153.953 106.854C154.052 106.895 154.107 106.951 154.108 107.009V112.779C154.107 112.837 154.052 112.893 153.953 112.934C153.854 112.975 153.721 112.998 153.581 112.998Z" fill="#E6E6E6"/>
<path d="M162.742 112.998H157.89C157.759 112.998 157.633 112.943 157.54 112.846C157.447 112.749 157.395 112.617 157.395 112.479V105.482C157.395 105.345 157.447 105.213 157.54 105.116C157.633 105.019 157.759 104.964 157.89 104.964H162.742C162.873 104.964 162.999 105.019 163.092 105.116C163.185 105.213 163.237 105.345 163.237 105.482V112.479C163.237 112.617 163.185 112.749 163.092 112.846C162.999 112.943 162.873 112.998 162.742 112.998Z" fill="#E6E6E6"/>
<path d="M171.871 112.998H167.019C166.891 113 166.766 112.968 166.673 112.909C166.581 112.851 166.527 112.77 166.523 112.685V102.357C166.527 102.272 166.581 102.191 166.673 102.132C166.766 102.073 166.891 102.041 167.019 102.043H171.871C171.999 102.041 172.123 102.073 172.216 102.132C172.309 102.191 172.363 102.272 172.366 102.357V112.685C172.363 112.77 172.309 112.851 172.216 112.909C172.123 112.968 171.999 113 171.871 112.998Z" fill="#E6E6E6"/>
<path d="M218.219 112.998H213.064C212.924 112.998 212.79 112.943 212.692 112.847C212.593 112.75 212.537 112.619 212.537 112.482V91.6031C212.537 91.4662 212.593 91.335 212.692 91.2383C212.79 91.1415 212.924 91.0871 213.064 91.0869H218.219C218.358 91.0871 218.492 91.1415 218.591 91.2383C218.69 91.335 218.745 91.4662 218.745 91.6031V112.482C218.745 112.619 218.69 112.75 218.591 112.847C218.492 112.943 218.358 112.998 218.219 112.998Z" fill="#F2F2F2"/>
<path d="M188.069 96.1999C188.674 96.1999 189.165 95.7094 189.165 95.1043C189.165 94.4993 188.674 94.0088 188.069 94.0088C187.464 94.0088 186.974 94.4993 186.974 95.1043C186.974 95.7094 187.464 96.1999 188.069 96.1999Z" fill="#3F3D56"/>
<path d="M197.199 103.138C197.804 103.138 198.295 102.648 198.295 102.043C198.295 101.438 197.804 100.947 197.199 100.947C196.594 100.947 196.104 101.438 196.104 102.043C196.104 102.648 196.594 103.138 197.199 103.138Z" fill="#3F3D56"/>
<path d="M206.329 92.9128C206.934 92.9128 207.424 92.4223 207.424 91.8172C207.424 91.2122 206.934 90.7217 206.329 90.7217C205.724 90.7217 205.233 91.2122 205.233 91.8172C205.233 92.4223 205.724 92.9128 206.329 92.9128Z" fill="#3F3D56"/>
<path d="M215.459 89.2614C216.064 89.2614 216.554 88.7709 216.554 88.1659C216.554 87.5608 216.064 87.0703 215.459 87.0703C214.854 87.0703 214.363 87.5608 214.363 88.1659C214.363 88.7709 214.854 89.2614 215.459 89.2614Z" fill="#3F3D56"/>
<path d="M197.058 102.043L187.858 95.2781L178.783 101.951L178.575 101.678L187.858 94.8532L197.015 101.586L206.114 91.8109L206.151 91.7964L215.329 88.166L215.459 88.4815L206.316 92.0973L197.058 102.043Z" fill="#3F3D56"/>
<path d="M219.711 114.824H214.859C214.727 114.824 214.602 114.77 214.509 114.673C214.416 114.576 214.363 114.445 214.363 114.308V93.4293C214.363 93.2924 214.416 93.1612 214.509 93.0644C214.602 92.9677 214.727 92.9132 214.859 92.9131H219.711C219.842 92.9132 219.968 92.9677 220.061 93.0644C220.154 93.1612 220.206 93.2924 220.206 93.4293V114.308C220.206 114.445 220.154 114.576 220.061 114.673C219.968 114.77 219.842 114.824 219.711 114.824Z" fill="#3931D8"/>
<path d="M178.575 102.773C179.18 102.773 179.671 102.283 179.671 101.678C179.671 101.073 179.18 100.582 178.575 100.582C177.97 100.582 177.479 101.073 177.479 101.678C177.479 102.283 177.97 102.773 178.575 102.773Z" fill="#3F3D56"/>
<path d="M169.445 100.582C170.05 100.582 170.541 100.091 170.541 99.4862C170.541 98.8811 170.05 98.3906 169.445 98.3906C168.84 98.3906 168.35 98.8811 168.35 99.4862C168.35 100.091 168.84 100.582 169.445 100.582Z" fill="#3F3D56"/>
<path d="M160.315 103.869C160.92 103.869 161.411 103.378 161.411 102.773C161.411 102.168 160.92 101.678 160.315 101.678C159.71 101.678 159.22 102.168 159.22 102.773C159.22 103.378 159.71 103.869 160.315 103.869Z" fill="#3F3D56"/>
<path d="M150.821 105.695C151.426 105.695 151.917 105.205 151.917 104.599C151.917 103.994 151.426 103.504 150.821 103.504C150.216 103.504 149.726 103.994 149.726 104.599C149.726 105.205 150.216 105.695 150.821 105.695Z" fill="#3F3D56"/>
<path d="M180.826 153.007C180.552 153.007 180.288 152.898 180.093 152.703C179.899 152.509 179.789 152.244 179.789 151.969V146.064C179.789 145.788 179.899 145.524 180.093 145.33C180.287 145.135 180.55 145.025 180.825 145.025H180.826C181.101 145.025 181.364 145.135 181.558 145.33C181.752 145.524 181.862 145.788 181.862 146.064V151.969C181.862 152.244 181.752 152.508 181.558 152.703C181.364 152.897 181.101 153.007 180.826 153.007ZM178.123 153.007C177.986 153.009 177.85 152.983 177.722 152.931C177.595 152.88 177.48 152.804 177.382 152.707C177.284 152.611 177.207 152.496 177.154 152.369C177.1 152.242 177.073 152.106 177.072 151.969V148.788C177.073 148.513 177.182 148.249 177.376 148.054C177.57 147.859 177.833 147.75 178.108 147.75H178.123C178.397 147.75 178.66 147.859 178.854 148.054C179.049 148.249 179.158 148.513 179.158 148.788V151.969C179.158 152.244 179.049 152.508 178.854 152.703C178.66 152.897 178.397 153.007 178.123 153.007ZM175.393 153.007C175.118 153.007 174.854 152.898 174.66 152.703C174.465 152.509 174.356 152.244 174.355 151.969V142.887C174.356 142.612 174.465 142.348 174.659 142.153C174.853 141.958 175.116 141.849 175.391 141.849H175.393C175.667 141.849 175.931 141.958 176.125 142.153C176.319 142.348 176.428 142.612 176.428 142.887V151.969C176.428 152.244 176.319 152.508 176.125 152.703C175.931 152.897 175.667 153.007 175.393 153.007ZM172.673 153.007C172.537 153.007 172.402 152.981 172.276 152.928C172.151 152.876 172.036 152.8 171.94 152.703C171.844 152.607 171.767 152.492 171.715 152.366C171.663 152.24 171.637 152.105 171.637 151.968L171.638 150.604C171.638 150.329 171.747 150.065 171.941 149.87C172.136 149.675 172.399 149.566 172.674 149.566C172.948 149.566 173.212 149.676 173.406 149.871C173.6 150.065 173.709 150.33 173.709 150.605V151.969C173.708 152.244 173.599 152.508 173.405 152.703C173.211 152.897 172.948 153.007 172.673 153.007Z" fill="#3931D8"/>
<path d="M69.6667 114.039C69.3397 112.601 68.4572 111.353 67.2131 110.568C65.969 109.782 64.4649 109.524 63.031 109.849C62.891 109.881 62.7459 109.921 62.6182 109.96L63.9404 115.786L69.7503 114.463C69.7257 114.327 69.6987 114.179 69.6667 114.039Z" fill="#3931D8"/>
<path d="M69.1039 115.485L63.2916 116.808L61.9718 110.982C60.9584 111.297 60.0562 111.896 59.3721 112.709C58.688 113.522 58.2507 114.515 58.112 115.569C57.9734 116.624 58.1392 117.696 58.5899 118.659C59.0406 119.622 59.7571 120.435 60.6547 121.002C61.5522 121.569 62.593 121.866 63.6538 121.858C64.7146 121.85 65.7508 121.537 66.6395 120.956C67.5283 120.375 68.2324 119.551 68.6683 118.582C69.1042 117.612 69.2537 116.537 69.099 115.485H69.1039Z" fill="#3931D8"/>
</g>
</svg>
