<svg width="320" height="248" viewBox="0 0 320 248" fill="none" xmlns="http://www.w3.org/2000/svg">
<g opacity="0.5">
<path d="M56.9152 223.974C59.9667 221.389 61.8203 217.304 61.3342 213.328C60.8481 209.352 57.8374 205.696 53.932 204.852C50.0266 204.007 45.5748 206.345 44.3886 210.17C43.7358 202.795 42.9835 195.111 39.0731 188.83C35.5323 183.143 29.3996 179.074 22.7531 178.346C16.1066 177.618 9.10873 180.367 4.96356 185.628C0.818388 190.888 -0.196548 198.536 2.70662 204.575C4.84529 209.024 8.78546 212.335 12.9138 215.028C26.2539 223.659 42.2536 227.169 57.969 224.912L56.9152 223.974Z" fill="#F2F2F2"/>
<path d="M11.5361 180.519C17.0203 184.998 22.0514 190.007 26.5568 195.475C31.0629 200.937 35.03 206.824 38.4024 213.054C40.2874 216.549 41.9808 220.145 43.4749 223.824C43.7796 224.573 42.5674 224.899 42.2661 224.159C39.6196 217.671 36.3454 211.459 32.4904 205.612C28.6541 199.786 24.2633 194.347 19.3796 189.371C16.6174 186.558 13.703 183.9 10.6496 181.408C10.0238 180.897 10.9154 180.012 11.5361 180.519Z" fill="white"/>
<path d="M239.018 21H73.7577C73.1279 21.0007 72.5242 21.2519 72.0788 21.6984C71.6335 22.145 71.383 22.7504 71.3823 23.3819V135.671C71.383 136.303 71.6335 136.908 72.0788 137.355C72.5242 137.801 73.1279 138.053 73.7577 138.053H239.018C239.647 138.053 240.251 137.801 240.696 137.355C241.142 136.908 241.392 136.303 241.393 135.671V23.3819C241.392 22.7504 241.142 22.145 240.696 21.6984C240.251 21.2519 239.647 21.0007 239.018 21ZM240.714 135.671C240.714 136.123 240.535 136.555 240.217 136.874C239.899 137.193 239.467 137.373 239.018 137.373H73.7577C73.3078 137.373 72.8763 137.193 72.5582 136.874C72.24 136.555 72.0612 136.123 72.061 135.671V23.3819C72.0612 22.9307 72.24 22.4981 72.5582 22.1791C72.8763 21.86 73.3078 21.6807 73.7577 21.6805H239.018C239.467 21.6807 239.899 21.86 240.217 22.1791C240.535 22.4981 240.714 22.9307 240.714 23.3819V135.671Z" fill="#3F3D56"/>
<path d="M241.054 30.541H71.7217V31.2216H241.054V30.541Z" fill="#3F3D56"/>
<path d="M77.4902 28.1458C78.6146 28.1458 79.5262 27.2317 79.5262 26.1041C79.5262 24.9766 78.6146 24.0625 77.4902 24.0625C76.3657 24.0625 75.4541 24.9766 75.4541 26.1041C75.4541 27.2317 76.3657 28.1458 77.4902 28.1458Z" fill="#3F3D56"/>
<path d="M83.3442 28.1458C84.4686 28.1458 85.3802 27.2317 85.3802 26.1041C85.3802 24.9766 84.4686 24.0625 83.3442 24.0625C82.2197 24.0625 81.3081 24.9766 81.3081 26.1041C81.3081 27.2317 82.2197 28.1458 83.3442 28.1458Z" fill="#3F3D56"/>
<path d="M89.1977 28.1458C90.3222 28.1458 91.2337 27.2317 91.2337 26.1041C91.2337 24.9766 90.3222 24.0625 89.1977 24.0625C88.0732 24.0625 87.1616 24.9766 87.1616 26.1041C87.1616 27.2317 88.0732 28.1458 89.1977 28.1458Z" fill="#3F3D56"/>
<path d="M198.009 58H112.991C112.197 58 111.437 57.7366 110.876 57.2678C110.315 56.7989 110 56.163 110 55.5C110 54.837 110.315 54.2011 110.876 53.7322C111.437 53.2634 112.197 53 112.991 53H198.009C198.803 53 199.563 53.2634 200.124 53.7322C200.685 54.2011 201 54.837 201 55.5C201 56.163 200.685 56.7989 200.124 57.2678C199.563 57.7366 198.803 58 198.009 58Z" fill="#CCCCCC"/>
<path d="M198.009 47H112.991C112.197 47 111.437 46.7366 110.876 46.2678C110.315 45.7989 110 45.163 110 44.5C110 43.837 110.315 43.2011 110.876 42.7322C111.437 42.2634 112.197 42 112.991 42H198.009C198.803 42 199.563 42.2634 200.124 42.7322C200.685 43.2011 201 43.837 201 44.5C201 45.163 200.685 45.7989 200.124 46.2678C199.563 46.7366 198.803 47 198.009 47Z" fill="#CCCCCC"/>
<path d="M210.405 129.019C207.845 129.019 205.343 128.258 203.215 126.832C201.086 125.406 199.428 123.379 198.448 121.008C197.468 118.637 197.212 116.027 197.712 113.51C198.211 110.993 199.444 108.68 201.253 106.865C203.063 105.051 205.369 103.815 207.88 103.314C210.39 102.813 212.993 103.07 215.357 104.052C217.722 105.035 219.743 106.698 221.165 108.832C222.588 110.966 223.347 113.475 223.347 116.042C223.343 119.482 221.978 122.781 219.552 125.214C217.125 127.647 213.836 129.015 210.405 129.019ZM210.405 103.959C208.022 103.959 205.692 104.668 203.71 105.996C201.729 107.323 200.185 109.21 199.273 111.418C198.361 113.626 198.122 116.055 198.587 118.399C199.052 120.743 200.199 122.895 201.885 124.585C203.57 126.275 205.717 127.426 208.054 127.892C210.391 128.358 212.814 128.119 215.016 127.204C217.217 126.29 219.099 124.741 220.423 122.754C221.747 120.767 222.454 118.431 222.454 116.042C222.45 112.838 221.18 109.767 218.921 107.502C216.662 105.237 213.599 103.963 210.405 103.959Z" fill="#3F3D56"/>
<path d="M101.904 94.2631C99.3446 94.2631 96.8424 93.502 94.7141 92.076C92.5859 90.65 90.9271 88.6233 89.9475 86.252C88.968 83.8807 88.7117 81.2714 89.2111 78.7541C89.7104 76.2368 90.943 73.9244 92.753 72.1095C94.5629 70.2946 96.8689 69.0587 99.3794 68.558C101.89 68.0572 104.492 68.3142 106.857 69.2964C109.222 70.2786 111.243 71.942 112.665 74.0761C114.087 76.2102 114.846 78.7192 114.846 81.2858C114.842 84.7264 113.477 88.025 111.051 90.4578C108.625 92.8907 105.335 94.2592 101.904 94.2631ZM101.904 69.2036C99.5211 69.2036 97.1915 69.9122 95.21 71.2398C93.2285 72.5674 91.6841 74.4544 90.7721 76.6622C89.8602 78.8699 89.6215 81.2992 90.0865 83.643C90.5514 85.9867 91.699 88.1395 93.3841 89.8293C95.0692 91.519 97.2162 92.6697 99.5535 93.1359C101.891 93.6021 104.314 93.3629 106.515 92.4484C108.717 91.5339 110.599 89.9853 111.923 87.9984C113.247 86.0115 113.954 83.6755 113.954 81.2858C113.95 78.0825 112.679 75.0115 110.42 72.7464C108.161 70.4813 105.099 69.2072 101.904 69.2036Z" fill="#3F3D56"/>
<path d="M106.932 88.1659C106.593 88.166 106.268 88.0312 106.028 87.7911C105.788 87.551 105.653 87.2253 105.653 86.8855V79.6043C105.653 79.2648 105.788 78.9394 106.027 78.6994C106.266 78.4594 106.591 78.3243 106.929 78.3239H106.932C107.27 78.3243 107.595 78.4594 107.834 78.6994C108.073 78.9394 108.208 79.2648 108.208 79.6043V86.8855C108.208 87.225 108.073 87.5504 107.834 87.7904C107.595 88.0305 107.27 88.1655 106.932 88.1659ZM103.598 88.1659C103.429 88.1676 103.261 88.1358 103.104 88.0722C102.948 88.0087 102.805 87.9148 102.685 87.7958C102.564 87.6768 102.469 87.5351 102.403 87.3789C102.338 87.2227 102.303 87.055 102.303 86.8855V82.9633C102.303 82.6239 102.438 82.2985 102.677 82.0585C102.916 81.8185 103.241 81.6835 103.579 81.6831H103.598C103.936 81.6835 104.261 81.8185 104.5 82.0585C104.74 82.2985 104.874 82.6239 104.875 82.9633V86.8855C104.874 87.225 104.74 87.5504 104.5 87.7904C104.261 88.0305 103.936 88.1655 103.598 88.1659ZM100.232 88.1659C99.893 88.166 99.5679 88.0312 99.3281 87.7911C99.0883 87.551 98.9533 87.2253 98.9528 86.8855V75.6876C98.9532 75.3481 99.0878 75.0227 99.3272 74.7827C99.5665 74.5426 99.8911 74.4076 100.23 74.4072H100.232C100.57 74.4076 100.895 74.5426 101.134 74.7827C101.374 75.0227 101.508 75.3481 101.509 75.6876V86.8855C101.508 87.225 101.374 87.5504 101.134 87.7904C100.895 88.0305 100.57 88.1655 100.232 88.1659ZM96.8787 88.1659C96.7108 88.1661 96.5446 88.133 96.3894 88.0687C96.2343 88.0044 96.0934 87.91 95.9747 87.791C95.8559 87.672 95.7618 87.5307 95.6976 87.3752C95.6334 87.2196 95.6005 87.0529 95.6006 86.8846L95.602 85.2027C95.6021 84.8632 95.7368 84.5376 95.9763 84.2976C96.2159 84.0576 96.5407 83.9229 96.8793 83.9231C97.2179 83.9232 97.5426 84.0582 97.7819 84.2984C98.0212 84.5386 98.1556 84.8643 98.1555 85.2038V86.8855C98.1551 87.225 98.0204 87.5504 97.7811 87.7904C97.5417 88.0305 97.2172 88.1655 96.8787 88.1659Z" fill="#3931D8"/>
<path d="M298.228 224.927C295.669 224.927 293.167 224.166 291.038 222.74C288.91 221.314 287.251 219.287 286.272 216.916C285.292 214.545 285.036 211.935 285.535 209.418C286.035 206.901 287.267 204.588 289.077 202.774C290.887 200.959 293.193 199.723 295.704 199.222C298.214 198.721 300.816 198.978 303.181 199.96C305.546 200.943 307.567 202.606 308.989 204.74C310.411 206.874 311.17 209.383 311.17 211.95C311.166 215.39 309.802 218.689 307.375 221.122C304.949 223.555 301.66 224.923 298.228 224.927ZM298.228 199.868C295.845 199.868 293.516 200.576 291.534 201.904C289.553 203.231 288.008 205.118 287.096 207.326C286.184 209.534 285.946 211.963 286.411 214.307C286.876 216.651 288.023 218.804 289.708 220.493C291.393 222.183 293.54 223.334 295.878 223.8C298.215 224.266 300.638 224.027 302.84 223.112C305.041 222.198 306.923 220.649 308.247 218.662C309.571 216.676 310.278 214.34 310.278 211.95C310.274 208.747 309.003 205.676 306.745 203.41C304.486 201.145 301.423 199.871 298.228 199.868Z" fill="#3F3D56"/>
<path d="M301.796 209.698L299.273 213.567C299.476 213.813 299.586 214.123 299.585 214.443C299.584 214.812 299.438 215.165 299.178 215.426C298.917 215.686 298.565 215.833 298.197 215.833C297.829 215.833 297.476 215.686 297.216 215.426C296.956 215.165 296.809 214.812 296.809 214.443C296.809 214.353 296.817 214.264 296.833 214.176L295.167 213.203C294.952 213.412 294.676 213.545 294.379 213.583C294.082 213.62 293.781 213.56 293.521 213.412L291.749 215.076V216.735C291.75 217.063 291.88 217.378 292.111 217.61C292.342 217.842 292.655 217.973 292.983 217.975H303.472C303.8 217.973 304.113 217.842 304.345 217.61C304.576 217.378 304.707 217.063 304.709 216.735V210.582L303.014 209.452C302.844 209.585 302.645 209.676 302.434 209.719C302.223 209.761 302.004 209.754 301.796 209.698Z" fill="#3931D8"/>
<path d="M294.206 210.82C294.574 210.82 294.927 210.967 295.187 211.228C295.447 211.489 295.594 211.843 295.594 212.212V212.391L297.331 213.366C297.579 213.162 297.89 213.051 298.21 213.051C298.311 213.052 298.412 213.063 298.511 213.083L301.04 209.158C300.913 208.981 300.831 208.775 300.799 208.559C300.766 208.343 300.786 208.123 300.855 207.916C300.923 207.708 301.04 207.52 301.195 207.367C301.35 207.214 301.539 207.099 301.747 207.033C301.954 206.967 302.175 206.951 302.389 206.986C302.604 207.021 302.808 207.107 302.984 207.236C303.159 207.365 303.302 207.533 303.401 207.728C303.499 207.923 303.55 208.139 303.55 208.357C303.549 208.468 303.537 208.578 303.512 208.686L304.709 209.487V207.165C304.707 206.837 304.576 206.523 304.345 206.29C304.113 206.058 303.8 205.927 303.472 205.926H292.983C292.655 205.927 292.342 206.058 292.111 206.291C291.88 206.523 291.75 206.837 291.749 207.165V213.815L292.905 212.704C292.828 212.494 292.803 212.268 292.831 212.046C292.859 211.824 292.941 211.612 293.069 211.428C293.196 211.245 293.366 211.095 293.564 210.991C293.762 210.888 293.982 210.834 294.206 210.834V210.82Z" fill="#3931D8"/>
<path d="M156.901 94.2631C154.341 94.2631 151.839 93.502 149.711 92.076C147.582 90.65 145.924 88.6233 144.944 86.252C143.965 83.8807 143.708 81.2714 144.208 78.7541C144.707 76.2368 145.94 73.9244 147.75 72.1095C149.559 70.2946 151.866 69.0587 154.376 68.558C156.886 68.0572 159.489 68.3142 161.853 69.2964C164.218 70.2786 166.239 71.942 167.662 74.0761C169.084 76.2102 169.843 78.7192 169.843 81.2858C169.839 84.7264 168.474 88.025 166.048 90.4578C163.622 92.8907 160.332 94.2592 156.901 94.2631ZM156.901 69.2036C154.518 69.2036 152.188 69.9122 150.207 71.2398C148.225 72.5674 146.681 74.4544 145.769 76.6622C144.857 78.8699 144.618 81.2992 145.083 83.643C145.548 85.9867 146.696 88.1395 148.381 89.8293C150.066 91.519 152.213 92.6697 154.55 93.1359C156.887 93.6021 159.31 93.3629 161.512 92.4484C163.714 91.5339 165.595 89.9853 166.919 87.9984C168.243 86.0115 168.95 83.6755 168.95 81.2858C168.946 78.0825 167.676 75.0115 165.417 72.7464C163.158 70.4813 160.095 69.2072 156.901 69.2036Z" fill="#3F3D56"/>
<path d="M150.025 85.9894C149.839 85.9893 149.657 85.934 149.502 85.8304C149.348 85.7268 149.227 85.5796 149.156 85.4074C149.085 85.2351 149.066 85.0455 149.102 84.8626C149.138 84.6796 149.227 84.5115 149.359 84.3794L154.14 79.571C154.215 79.4957 154.303 79.4361 154.401 79.3954C154.499 79.3548 154.603 79.334 154.709 79.3342H154.71C154.815 79.3339 154.92 79.3546 155.017 79.3951C155.115 79.4356 155.203 79.4951 155.278 79.5702L157.496 81.794C157.54 81.8391 157.593 81.8748 157.652 81.8991C157.71 81.9234 157.773 81.9359 157.837 81.9357C157.9 81.9359 157.963 81.9234 158.022 81.8991C158.08 81.8747 158.133 81.839 158.178 81.7939L161.309 78.6489C161.324 78.6339 161.336 78.6161 161.344 78.5966C161.352 78.577 161.356 78.5561 161.356 78.5349C161.356 78.5137 161.352 78.4928 161.344 78.4732C161.336 78.4537 161.324 78.4359 161.309 78.421L160.296 77.4068C160.228 77.3392 160.182 77.2531 160.163 77.1592C160.145 77.0654 160.154 76.9681 160.191 76.8797C160.227 76.7913 160.289 76.7158 160.368 76.6626C160.448 76.6094 160.541 76.581 160.636 76.5811H164.235C164.362 76.5812 164.485 76.6322 164.575 76.7228C164.666 76.8135 164.717 76.9364 164.717 77.0646V80.6705C164.717 80.7661 164.689 80.8596 164.636 80.9391C164.583 81.0187 164.507 81.0807 164.419 81.1173C164.331 81.1539 164.234 81.1635 164.141 81.1448C164.047 81.1262 163.961 81.0801 163.894 81.0125L162.879 79.995C162.864 79.9801 162.846 79.9682 162.827 79.9601C162.807 79.952 162.786 79.9478 162.765 79.9478C162.744 79.9478 162.723 79.952 162.704 79.9601C162.684 79.9682 162.667 79.9801 162.652 79.995L158.412 84.2437C158.337 84.3188 158.249 84.3783 158.151 84.4188C158.054 84.4593 157.949 84.48 157.844 84.4797C157.738 84.48 157.633 84.4592 157.536 84.4187C157.438 84.3782 157.35 84.3186 157.275 84.2436L155.056 82.0186C154.964 81.9307 154.842 81.8817 154.715 81.8817C154.588 81.8817 154.466 81.9307 154.374 82.0186L150.69 85.7128C150.603 85.8007 150.499 85.8705 150.385 85.9179C150.271 85.9654 150.149 85.9897 150.025 85.9894Z" fill="#3931D8"/>
<path d="M156.901 128.289C154.341 128.289 151.839 127.528 149.711 126.102C147.582 124.676 145.924 122.65 144.944 120.278C143.965 117.907 143.708 115.298 144.208 112.78C144.707 110.263 145.94 107.951 147.75 106.136C149.559 104.321 151.866 103.085 154.376 102.584C156.886 102.084 159.489 102.341 161.853 103.323C164.218 104.305 166.239 105.968 167.662 108.102C169.084 110.237 169.843 112.746 169.843 115.312C169.839 118.753 168.474 122.051 166.048 124.484C163.622 126.917 160.332 128.286 156.901 128.289Z" fill="#E6E6E6"/>
<path d="M210.517 93.2426C207.957 93.2426 205.455 92.4815 203.327 91.0555C201.199 89.6295 199.54 87.6028 198.56 85.2315C197.581 82.8602 197.325 80.2509 197.824 77.7336C198.323 75.2163 199.556 72.9039 201.366 71.089C203.176 69.2741 205.482 68.0382 207.992 67.5374C210.503 67.0367 213.105 67.2937 215.47 68.2759C217.834 69.2581 219.856 70.9215 221.278 73.0556C222.7 75.1897 223.459 77.6987 223.459 80.2653C223.455 83.7059 222.09 87.0045 219.664 89.4373C217.238 91.8702 213.948 93.2387 210.517 93.2426Z" fill="#E6E6E6"/>
<path d="M101.905 102.335C99.6833 102.338 97.4996 102.912 95.5625 104.002C98.362 104.25 100.987 105.472 102.984 107.455C104.98 109.438 106.223 112.059 106.497 114.863C106.77 117.668 106.058 120.481 104.483 122.814C102.908 125.148 100.569 126.857 97.8701 127.644C98.3756 127.812 98.8913 127.948 99.4141 128.049C100.234 128.211 101.069 128.292 101.905 128.291C105.337 128.291 108.629 126.924 111.057 124.49C113.484 122.056 114.847 118.755 114.847 115.313C114.847 111.871 113.484 108.57 111.057 106.136C108.629 103.702 105.337 102.335 101.905 102.335Z" fill="#E6E6E6"/>
<path d="M96.9945 103.309C96.1744 103.145 95.34 103.063 94.5036 103.064C91.1759 103.061 87.9745 104.342 85.5629 106.641C83.1512 108.94 81.7143 112.082 81.55 115.414C81.3857 118.747 82.5065 122.015 84.6801 124.542C86.8538 127.069 89.9137 128.66 93.2255 128.985C96.5373 129.311 99.8471 128.347 102.469 126.292C105.091 124.237 106.824 121.249 107.308 117.948C107.793 114.647 106.992 111.285 105.072 108.56C103.152 105.834 100.259 103.954 96.9945 103.309ZM97.8701 127.646C96.2126 128.129 94.471 128.25 92.763 128C91.055 127.75 89.4205 127.135 87.9701 126.196C86.5198 125.257 85.2874 124.018 84.3565 122.56C83.4256 121.102 82.8178 119.461 82.5742 117.748C82.3307 116.034 82.4571 114.288 82.9449 112.628C83.4327 110.968 84.2706 109.432 85.4017 108.125C86.5329 106.817 87.9309 105.769 89.5012 105.05C91.0716 104.331 92.7775 103.959 94.5036 103.959C94.8601 103.959 95.213 103.976 95.5624 104.004C98.3619 104.252 100.987 105.473 102.984 107.456C104.98 109.44 106.223 112.06 106.496 114.865C106.77 117.669 106.058 120.482 104.483 122.816C102.907 125.15 100.568 126.858 97.8701 127.646Z" fill="#3F3D56"/>
<path d="M102.039 113.758C101.611 111.877 100.457 110.244 98.8296 109.217C97.2021 108.189 95.2346 107.852 93.3589 108.277C93.1757 108.319 92.986 108.371 92.8188 108.422L94.5485 116.043L102.148 114.312C102.116 114.135 102.081 113.941 102.039 113.758Z" fill="#3931D8"/>
<path d="M101.303 115.649L93.6999 117.381L91.9735 109.76C90.6479 110.171 89.4677 110.955 88.5728 112.018C87.6779 113.082 87.1059 114.38 86.9245 115.76C86.7432 117.139 86.9601 118.542 87.5496 119.801C88.1391 121.061 89.0765 122.125 90.2506 122.866C91.4246 123.608 92.7862 123.997 94.1738 123.986C95.5614 123.975 96.9168 123.566 98.0794 122.806C99.242 122.047 100.163 120.969 100.733 119.7C101.304 118.432 101.499 117.026 101.297 115.649H101.303Z" fill="#3931D8"/>
<path d="M234.905 176.658C232.346 176.658 229.843 175.896 227.715 174.471C225.587 173.045 223.928 171.018 222.949 168.647C221.969 166.275 221.713 163.666 222.212 161.149C222.711 158.631 223.944 156.319 225.754 154.504C227.564 152.689 229.87 151.453 232.38 150.952C234.891 150.452 237.493 150.709 239.858 151.691C242.223 152.673 244.244 154.337 245.666 156.471C247.088 158.605 247.847 161.114 247.847 163.68C247.843 167.121 246.478 170.419 244.052 172.852C241.626 175.285 238.336 176.654 234.905 176.658ZM234.905 151.598C232.522 151.598 230.192 152.307 228.211 153.634C226.229 154.962 224.685 156.849 223.773 159.057C222.861 161.264 222.623 163.694 223.087 166.037C223.552 168.381 224.7 170.534 226.385 172.224C228.07 173.914 230.217 175.064 232.555 175.53C234.892 175.997 237.315 175.757 239.516 174.843C241.718 173.928 243.6 172.38 244.924 170.393C246.248 168.406 246.954 166.07 246.954 163.68C246.951 160.477 245.68 157.406 243.421 155.141C241.162 152.876 238.1 151.602 234.905 151.598Z" fill="#3F3D56"/>
<path d="M240.49 168.88C240.016 168.88 239.553 168.74 239.159 168.476C238.765 168.213 238.458 167.838 238.276 167.399C238.094 166.96 238.047 166.477 238.139 166.011C238.231 165.546 238.459 165.117 238.793 164.781C239.128 164.445 239.555 164.216 240.019 164.123C240.484 164.03 240.965 164.078 241.403 164.259C241.841 164.44 242.215 164.748 242.479 165.143C242.742 165.538 242.883 166.002 242.883 166.477C242.883 167.114 242.631 167.725 242.182 168.175C241.734 168.626 241.125 168.879 240.49 168.88ZM234.905 168.88C234.271 168.879 233.663 168.626 233.214 168.176C232.765 167.726 232.513 167.116 232.512 166.48V160.881C232.513 160.245 232.765 159.635 233.214 159.185C233.663 158.736 234.271 158.483 234.905 158.483C235.54 158.483 236.148 158.736 236.597 159.185C237.046 159.635 237.298 160.245 237.299 160.881V166.48C237.298 167.116 237.046 167.726 236.597 168.176C236.148 168.626 235.54 168.879 234.905 168.88ZM229.323 168.88C228.688 168.879 228.079 168.626 227.63 168.176C227.181 167.726 226.928 167.115 226.928 166.478V164.241C226.928 163.604 227.18 162.993 227.629 162.543C228.078 162.093 228.688 161.84 229.323 161.84C229.958 161.84 230.567 162.093 231.016 162.543C231.466 162.993 231.718 163.604 231.718 164.241V166.478C231.717 167.115 231.465 167.726 231.016 168.176C230.567 168.626 229.958 168.879 229.323 168.88Z" fill="#3931D8"/>
<path d="M70.7969 221.902L74.7417 221.453L74.8924 205.982L69.0703 206.645L70.7969 221.902Z" fill="#A0616A"/>
<path d="M82.7651 224.261L70.3676 225.671L69.8241 220.868L77.4316 220.003C78.702 219.858 79.9776 220.226 80.9778 221.024C81.9781 221.823 82.621 222.987 82.7651 224.261Z" fill="#2F2E41"/>
<path d="M30.2292 221.655L34.1992 221.655L36.0876 206.3L30.2285 206.3L30.2292 221.655Z" fill="#A0616A"/>
<path d="M41.8555 225.351L29.3784 225.351L29.3781 220.517L37.0346 220.517C38.3131 220.517 39.5393 221.026 40.4434 221.933C41.3475 222.839 41.8554 224.069 41.8555 225.351Z" fill="#2F2E41"/>
<path d="M58.7129 152.989L60.9797 160.382L73.2849 187.083L76.5231 212.41L69.0752 212.735L64.5417 189.356L48.9982 172.471L35.3977 216.631L29.2451 215.982C29.2451 215.982 34.4263 158.833 41.5504 152.989C41.5504 152.989 53.2079 147.468 58.7129 152.989Z" fill="#2F2E41"/>
<path d="M48.6575 121.088C53.05 121.088 56.6109 117.517 56.6109 113.113C56.6109 108.708 53.05 105.138 48.6575 105.138C44.265 105.138 40.7041 108.708 40.7041 113.113C40.7041 117.517 44.265 121.088 48.6575 121.088Z" fill="#A0616A"/>
<path d="M59.5221 154.45C59.5221 154.45 60.4936 121.33 46.8931 123.603C33.2925 125.876 38.9594 157.86 38.9594 157.86C38.9594 157.86 41.8738 163.705 48.9979 157.21C56.122 150.716 59.5221 154.45 59.5221 154.45Z" fill="#3931D8"/>
<path d="M87.6787 126.883C87.4233 127.286 87.083 127.628 86.6817 127.884C86.2804 128.141 85.8278 128.306 85.3558 128.369C84.8838 128.431 84.404 128.389 83.95 128.245C83.496 128.102 83.079 127.86 82.7283 127.537L72.541 133.041L73.0744 127.035L82.6667 122.729C83.2465 122.174 84.0092 121.852 84.8102 121.823C85.6111 121.795 86.3948 122.062 87.0126 122.574C87.6303 123.086 88.0394 123.807 88.1621 124.601C88.2849 125.396 88.1129 126.207 87.6787 126.883Z" fill="#A0616A"/>
<path d="M48.5815 127.648L65.118 130.45L79.9372 123.436L82.1871 128.26L65.9644 138.621C65.9644 138.621 48.7895 139.79 44.8187 135.249C43.3296 133.546 43.1594 131.995 43.5283 130.723C43.8514 129.68 44.5435 128.792 45.4742 128.226C46.4049 127.659 47.5101 127.454 48.5815 127.648Z" fill="#3931D8"/>
<path d="M47.7116 121.492C47.7496 121.458 47.7791 121.416 47.7978 121.368C47.8165 121.32 47.8239 121.269 47.8194 121.218C47.8149 121.167 47.7987 121.118 47.7719 121.074C47.7451 121.031 47.7086 120.994 47.6652 120.967C46.9589 120.529 46.3835 119.907 45.9994 119.169C45.6152 118.43 45.4366 117.601 45.4822 116.77C45.5278 115.938 45.7959 115.134 46.2585 114.442C46.721 113.75 47.3609 113.196 48.1108 112.837C50.4492 111.719 53.6178 112.589 55.3463 110.441C55.6979 109.981 55.9465 109.451 56.0751 108.886C56.2038 108.322 56.2096 107.736 56.092 107.169C55.719 105.14 54.1978 103.633 52.4942 102.6C50.4015 101.332 47.9963 100.676 45.5511 100.708C43.1059 100.74 40.7185 101.458 38.6594 102.781C36.6003 104.103 34.9518 105.978 33.9007 108.192C32.8496 110.406 32.4379 112.871 32.7122 115.308C32.9321 117.26 33.5331 119.45 32.3751 121.036C31.3559 122.431 29.4321 122.693 27.7422 123.039C24.1176 123.783 20.6208 125.499 18.1611 128.27C15.7014 131.041 14.3892 134.929 15.1308 138.564C15.8724 142.198 18.8477 145.392 22.5045 145.956C25.4809 146.414 28.5543 145.147 30.7401 143.069C32.9258 140.992 34.3074 138.187 35.1789 135.297C36.2132 131.866 36.6212 128.169 38.4886 125.114C40.316 122.123 44.2539 119.979 47.3402 121.537C47.3994 121.568 47.4665 121.58 47.5328 121.572C47.5991 121.564 47.6614 121.536 47.7116 121.492Z" fill="#2F2E41"/>
<path d="M278.196 180.524C278.626 180.309 279.005 180.003 279.304 179.625C279.603 179.248 279.817 178.81 279.929 178.341C280.041 177.872 280.049 177.385 279.953 176.912C279.857 176.44 279.658 175.994 279.372 175.607L287.035 133.082L279.884 132.987L274.562 175.04C273.946 175.565 273.543 176.299 273.43 177.103C273.317 177.907 273.502 178.724 273.95 179.4C274.398 180.076 275.077 180.564 275.86 180.771C276.642 180.978 277.474 180.89 278.196 180.524Z" fill="#FFB8B8"/>
<path d="M256.002 178.509L253.287 191.439L253.626 220.362H258.717L261.092 192.12L264.825 180.21L256.002 178.509Z" fill="#FFB8B8"/>
<path d="M272.825 179.479L270.11 192.41L270.449 221.333H275.539L277.915 193.09L281.648 181.181L272.825 179.479Z" fill="#FFB8B8"/>
<path d="M251.849 220.033L259.872 220.013L259.885 225.079L246.81 225.111C246.808 224.446 246.937 223.787 247.189 223.172C247.442 222.557 247.812 221.997 248.28 221.526C248.748 221.054 249.304 220.68 249.916 220.424C250.529 220.168 251.185 220.035 251.849 220.033Z" fill="#2F2E41"/>
<path d="M268.797 220.58L276.82 220.56L276.833 225.625L263.758 225.658C263.756 224.993 263.885 224.334 264.137 223.719C264.39 223.104 264.761 222.544 265.228 222.073C265.696 221.601 266.252 221.227 266.865 220.971C267.477 220.714 268.133 220.582 268.797 220.58Z" fill="#2F2E41"/>
<path d="M268.388 115.097C272.991 115.097 276.723 111.355 276.723 106.739C276.723 102.124 272.991 98.3818 268.388 98.3818C263.785 98.3818 260.054 102.124 260.054 106.739C260.054 111.355 263.785 115.097 268.388 115.097Z" fill="#FFB8B8"/>
<path d="M286.807 127.41C284.271 123.42 276.309 113.958 264.462 119.389C263.529 119.822 262.75 120.531 262.23 121.421C261.71 122.311 261.475 123.339 261.555 124.367C262.128 131.955 262.852 151.287 256.681 162.856C256.681 162.856 274.666 168.3 284.507 163.196C284.507 163.196 281.113 140.398 284.507 135.974C285.638 134.561 286.555 132.987 287.226 131.304C287.462 130.666 287.546 129.983 287.474 129.307C287.401 128.632 287.173 127.982 286.807 127.41Z" fill="#3F3D56"/>
<path d="M283.489 127.127L286.819 128.518C287.041 128.611 287.231 128.765 287.369 128.963C287.506 129.16 287.584 129.393 287.594 129.634L287.9 136.995L280.435 136.314L283.489 127.127Z" fill="#3F3D56"/>
<path d="M258.038 162.176C258.038 162.176 250.572 176.127 251.93 189.057L262.449 190.759L269.915 172.724L268.218 191.099L279.077 191.439C279.077 191.439 286.203 164.898 283.828 162.516L258.038 162.176Z" fill="#2F2E41"/>
<path d="M247.435 163.421C247.91 163.348 248.364 163.171 248.763 162.904C249.163 162.636 249.5 162.284 249.749 161.872C249.998 161.459 250.155 160.997 250.207 160.518C250.259 160.039 250.206 159.554 250.05 159.098L265.195 130.471L258.414 128.193L245.643 157.086C244.896 157.398 244.289 157.974 243.937 158.705C243.584 159.436 243.512 160.27 243.733 161.051C243.954 161.832 244.453 162.505 245.135 162.941C245.817 163.378 246.635 163.549 247.435 163.421Z" fill="#FFB8B8"/>
<path d="M267.263 122.721L264.458 121.463C264.458 121.463 262.08 119.985 259.971 123.238C257.863 126.491 255.586 133.62 255.586 133.62L264.738 136.202L267.263 122.721Z" fill="#3F3D56"/>
<path d="M269.723 110.763C270.022 109.721 269.936 108.311 268.928 107.917C268.404 107.712 267.818 107.873 267.258 107.931C266.161 108.039 265.063 107.736 264.176 107.081C263.134 106.304 262.491 105.117 261.879 103.968L260.955 102.231C260.749 101.869 260.574 101.49 260.431 101.099C259.916 99.5649 260.475 97.7893 261.618 96.6473C262.813 95.5328 264.385 94.9147 266.017 94.918C267.636 94.9296 269.235 95.2733 270.717 95.9277C273.351 97.0041 275.736 98.611 277.726 100.649C279.026 101.983 280.21 103.721 279.938 105.566C279.727 107.002 278.682 108.153 277.687 109.207L274.074 113.03C273.435 113.707 272.751 114.412 271.858 114.672C270.965 114.933 269.814 114.55 269.57 113.65C269.57 113.65 269.424 111.804 269.723 110.763Z" fill="#2F2E41"/>
<path d="M319.661 225.755H0.339343C0.249343 225.755 0.16303 225.719 0.0993909 225.655C0.0357518 225.591 0 225.505 0 225.414C0 225.324 0.0357518 225.238 0.0993909 225.174C0.16303 225.11 0.249343 225.074 0.339343 225.074H319.661C319.751 225.074 319.837 225.11 319.901 225.174C319.964 225.238 320 225.324 320 225.414C320 225.505 319.964 225.591 319.901 225.655C319.837 225.719 319.751 225.755 319.661 225.755Z" fill="#3F3D56"/>
<path d="M215.155 121.487H205.654C205.384 121.487 205.125 121.379 204.934 121.188C204.743 120.997 204.636 120.737 204.636 120.466C204.636 120.195 204.743 119.936 204.934 119.744C205.125 119.553 205.384 119.445 205.654 119.445H215.155C215.425 119.445 215.684 119.553 215.875 119.744C216.066 119.936 216.173 120.195 216.173 120.466C216.173 120.737 216.066 120.997 215.875 121.188C215.684 121.379 215.425 121.487 215.155 121.487Z" fill="#3931D8"/>
<path d="M215.155 117.062H205.654C205.384 117.062 205.125 116.955 204.934 116.763C204.743 116.572 204.636 116.312 204.636 116.041C204.636 115.771 204.743 115.511 204.934 115.32C205.125 115.128 205.384 115.021 205.654 115.021H215.155C215.425 115.021 215.684 115.128 215.875 115.32C216.066 115.511 216.173 115.771 216.173 116.041C216.173 116.312 216.066 116.572 215.875 116.763C215.684 116.955 215.425 117.062 215.155 117.062Z" fill="#3931D8"/>
<path d="M215.155 112.639H205.654C205.384 112.639 205.125 112.532 204.934 112.34C204.743 112.149 204.636 111.889 204.636 111.618C204.636 111.348 204.743 111.088 204.934 110.897C205.125 110.705 205.384 110.598 205.654 110.598H215.155C215.425 110.598 215.684 110.705 215.875 110.897C216.066 111.088 216.173 111.348 216.173 111.618C216.173 111.889 216.066 112.149 215.875 112.34C215.684 112.532 215.425 112.639 215.155 112.639Z" fill="#3931D8"/>
</g>
</svg>
