<?xml version="1.0" encoding="UTF-8"?>
<!DOCTYPE svg PUBLIC "-//W3C//DTD SVG 1.1//EN" "http://www.w3.org/Graphics/SVG/1.1/DTD/svg11.dtd">
<svg xmlns="http://www.w3.org/2000/svg" version="1.1" width="339px" height="365px" style="shape-rendering:geometricPrecision; text-rendering:geometricPrecision; image-rendering:optimizeQuality; fill-rule:evenodd; clip-rule:evenodd" xmlns:xlink="http://www.w3.org/1999/xlink">
<g><path style="opacity:0.947" fill="#ed3d2b" d="M 166.5,-0.5 C 168.167,-0.5 169.833,-0.5 171.5,-0.5C 212.942,23.3925 254.608,47.0591 296.5,70.5C 297.833,73.8333 297.833,77.1667 296.5,80.5C 292.956,83.4476 288.956,84.9476 284.5,85C 245.756,63.5463 207.256,41.713 169,19.5C 122.743,46.0466 76.2429,72.2133 29.5,98C 28.5494,98.7175 28.3828,99.5509 29,100.5C 75.8287,126.58 122.495,152.913 169,179.5C 219.752,150.54 270.585,121.707 321.5,93C 324.055,91.5555 326.721,90.3888 329.5,89.5C 332.511,90.8528 335.511,92.1862 338.5,93.5C 338.5,115.833 338.5,138.167 338.5,160.5C 281.65,191.509 225.15,223.176 169,255.5C 119.248,227.373 69.4142,199.373 19.5,171.5C 18.1805,182.728 18.1805,193.895 19.5,205C 69.2685,232.967 119.102,260.8 169,288.5C 222.667,258.5 276.333,228.5 330,198.5C 332.92,199.711 335.753,201.044 338.5,202.5C 338.5,224.833 338.5,247.167 338.5,269.5C 282.14,300.676 226.14,332.342 170.5,364.5C 169.5,364.5 168.5,364.5 167.5,364.5C 111.535,332.849 55.5352,301.182 -0.5,269.5C -0.5,265.167 -0.5,260.833 -0.5,256.5C 2.15052,255.51 4.81719,254.51 7.5,253.5C 61.291,283.23 114.958,313.23 168.5,343.5C 218.5,315.5 268.5,287.5 318.5,259.5C 319.666,248.181 319.832,236.848 319,225.5C 269.038,253.897 218.872,281.897 168.5,309.5C 112.311,277.905 55.9773,246.572 -0.5,215.5C -0.5,192.833 -0.5,170.167 -0.5,147.5C 2.06821,146.299 4.56821,144.966 7,143.5C 61,173.5 115,203.5 169,233.5C 218.898,205.8 268.731,177.967 318.5,150C 319.654,138.576 319.82,127.076 319,115.5C 269.077,144.213 218.91,172.546 168.5,200.5C 112.301,168.568 55.9679,136.901 -0.5,105.5C -0.5,101.5 -0.5,97.5 -0.5,93.5C 55.3637,62.4045 111.03,31.0712 166.5,-0.5 Z"/></g>
</svg>
