<?xml version="1.0" encoding="utf-8"?>
<!-- Generator: Adobe Illustrator 25.0.1, SVG Export Plug-In . SVG Version: 6.00 Build 0)  -->
<svg version="1.0" id="katman_1" xmlns="http://www.w3.org/2000/svg" xmlns:xlink="http://www.w3.org/1999/xlink" x="0px" y="0px"
	 viewBox="0 0 139.7 106" style="enable-background:new 0 0 139.7 106;" xml:space="preserve">
<style type="text/css">
	.st0{fill:#2E73B8;}
	.st1{fill:#215C99;}
	.st2{fill:#5294CF;}
	.st3{fill:#211C1C;}
</style>
<desc>Created with Sketch.</desc>
<g id="Updated-styles-and-pages">
	<g id="Homepage" transform="translate(-1167.000000, -4319.000000)">
		<g id="Integrations" transform="translate(158.000000, 4040.000000)">
			<g id="logo-redshift" transform="translate(1008.999984, 279.000000)">
				<rect id="Rectangle" x="31.9" y="32" class="st0" width="8.2" height="41"/>
				<polygon id="Path" class="st1" points="31.9,32 26.2,35.1 26.2,70 31.9,73 				"/>
				<polygon id="Path_1_" class="st2" points="40.2,32 40.2,73 45.9,70 45.9,35.1 				"/>
				<polygon id="Path_2_" class="st2" points="51.6,37.7 54.8,39.4 54.8,65.6 51.6,67.3 				"/>
				<polygon id="Path_3_" class="st1" points="51.6,67.3 45.9,65.6 45.9,39.4 51.6,37.7 				"/>
				<polygon id="Path_4_" class="st1" points="17.3,39.4 17.3,65.6 20.5,67.3 20.5,37.7 				"/>
				<polygon id="Path_5_" class="st2" points="20.5,37.7 26.2,39.4 26.2,65.6 20.5,67.3 				"/>
				<g id="Group" transform="translate(44.863636, 8.590909)">
					<path id="Path_6_" class="st3" d="M52.2,34.2v-1.3c0-0.2,0.2-0.4,0.4-0.4h6.1c0.2,0,0.4,0.1,0.4,0.4V34c0,0.2-0.2,0.5-0.5,0.9
						l-3.1,4.5c1.1,0,2.4,0.2,3.4,0.8c0.2,0.1,0.3,0.4,0.3,0.6v1.4c0,0.2-0.2,0.4-0.5,0.3c-1.9-1-4.4-1-6.4,0
						c-0.2,0.1-0.5-0.1-0.5-0.3v-1.3c0-0.2,0-0.6,0.2-1l3.6-5.2h-3.1C52.4,34.6,52.2,34.4,52.2,34.2"/>
					<path id="Path_7_" class="st3" d="M30,42.7h-1.8c-0.2,0-0.3-0.2-0.3-0.3v-9.5c0-0.2,0.2-0.4,0.4-0.4H30c0.2,0,0.3,0.2,0.4,0.3
						V34l0,0c0.5-1.2,1.3-1.7,2.4-1.7c1.1,0,1.9,0.6,2.4,1.7c0.5-1.2,1.4-1.7,2.6-1.7c0.8,0,1.6,0.3,2.1,1c0.6,0.8,0.5,1.9,0.5,3v6
						c0,0.2-0.2,0.4-0.4,0.4h-1.8c-0.2,0-0.4-0.2-0.4-0.4v-5.1c0-0.4,0-1.4-0.1-1.8c-0.1-0.7-0.6-0.9-1-0.9s-1,0.3-1.1,0.8
						s-0.2,1.2-0.2,1.8v5.1c0,0.2-0.2,0.4-0.4,0.4h-1.8c-0.2,0-0.4-0.2-0.4-0.4v-5.1c0-1,0.2-2.6-1.1-2.6c-1.3,0-1.2,1.5-1.2,2.6
						v5.1C30.4,42.5,30.2,42.7,30,42.7"/>
					<path id="Shape" class="st3" d="M64.3,34.3c-1.3,0-1.4,1.8-1.4,3.1c0,1.1,0,3.6,1.4,3.6c1.4,0,1.5-2,1.5-3.2
						c0-0.8,0-1.7-0.3-2.5C65.3,34.5,64.9,34.3,64.3,34.3 M64.2,32.3c2.8,0,4.2,2.4,4.2,5.3c0,2.9-1.6,5.2-4.2,5.2
						c-2.7,0-4.2-2.4-4.2-5.3C60.1,34.7,61.5,32.3,64.2,32.3"/>
					<path id="Path_8_" class="st3" d="M72,42.7h-1.8c-0.2,0-0.4-0.2-0.4-0.4v-9.5c0-0.2,0.2-0.3,0.4-0.3h1.7c0.2,0,0.3,0.1,0.3,0.3
						v1.4l0,0c0.5-1.3,1.2-1.9,2.5-1.9c0.9,0,1.6,0.3,2.2,1.1c0.5,0.8,0.5,2,0.5,3v6c0,0.2-0.2,0.3-0.4,0.3h-1.8
						c-0.2,0-0.3-0.1-0.3-0.3v-5.2c0-1,0.1-2.6-1.1-2.6c-0.5,0-0.9,0.3-1.1,0.8c-0.3,0.6-0.3,1.1-0.3,1.8v5.2
						C72.4,42.5,72.2,42.7,72,42.7"/>
					<path id="Shape_1_" class="st3" d="M47,40.1c-0.3,0.5-0.8,0.9-1.2,0.9c-0.7,0-1.1-0.6-1.1-1.3c0-1.6,1.4-1.9,2.8-1.9v0.4
						C47.4,38.9,47.4,39.4,47,40.1 M50.7,41c-0.4-0.5-0.7-0.9-0.7-1.7v-2.9c0-1.2,0.1-2.4-0.9-3.2c-0.7-0.7-1.9-1-2.8-1
						c-1.7,0-3.7,0.7-4.1,2.9c0,0.2,0.1,0.4,0.3,0.4l1.8,0.2c0.2,0,0.3-0.2,0.3-0.4c0.2-0.8,0.8-1.1,1.5-1.1c0.4,0,0.9,0.1,1,0.5
						c0.3,0.4,0.2,0.9,0.2,1.3v0.2c-1.1,0.1-2.5,0.2-3.5,0.7c-1.1,0.5-2,1.5-2,3.1c0,1.9,1.2,2.9,2.8,2.9c1.3,0,2-0.3,3.1-1.3
						c0.4,0.5,0.5,0.8,1,1.2c0.1,0.1,0.3,0.1,0.5,0l0,0c0.4-0.3,1-1,1.4-1.2C50.8,41.4,50.8,41.1,50.7,41"/>
					<path id="Shape_2_" class="st3" d="M22.8,40.1C22.5,40.6,22,41,21.5,41c-0.7,0-1.1-0.6-1.1-1.3c0-1.6,1.4-1.9,2.8-1.9v0.4
						C23.1,38.9,23.2,39.4,22.8,40.1 M25.7,39.3v-2.9c0-1.2,0.1-2.4-0.9-3.2c-0.8-0.7-1.9-1-2.8-1c-1.7,0-3.7,0.7-4.1,2.9
						c0,0.2,0.1,0.4,0.3,0.4l1.8,0.2c0.2,0,0.3-0.2,0.3-0.4c0.2-0.8,0.8-1.1,1.5-1.1c0.4,0,0.9,0.1,1.1,0.5c0.3,0.4,0.2,0.9,0.2,1.3
						v0.2c-1,0.1-2.5,0.2-3.5,0.7c-1.1,0.5-2,1.5-2,3.1c0,1.9,1.2,2.9,2.8,2.9c1.3,0,2-0.3,3.1-1.3c0.4,0.5,0.5,0.8,1.1,1.2
						c0.1,0.1,0.3,0.1,0.5,0l0,0c0.4-0.3,1-1,1.4-1.2c0.2-0.1,0.1-0.3,0-0.5C26,40.5,25.7,40.1,25.7,39.3"/>
					<path id="Shape_3_" class="st3" d="M18.8,50.8h1.1c1.2,0,2-0.7,2-1.7c0-1.1-0.9-1.6-2.1-1.7c-0.6,0-1,0.1-1.1,0.1L18.8,50.8
						L18.8,50.8z M17.6,46.7c0.6-0.1,1.4-0.2,2.2-0.2c1.2,0,2,0.2,2.6,0.8c0.5,0.4,0.7,1,0.7,1.7c0,1.1-0.8,2-1.7,2.3l0,0
						c0.7,0.3,1.1,0.9,1.3,1.8c0.3,1.2,0.5,2.1,0.7,2.5h-1.2c-0.2-0.3-0.4-1-0.6-2.2c-0.3-1.2-0.8-1.7-1.8-1.7h-1.1v3.9h-1.1
						L17.6,46.7L17.6,46.7z"/>
				</g>
				<polygon id="Path_9_" class="st3" points="75.3,60 71.8,60 71.8,63.2 75.7,63.2 75.7,64.2 70.6,64.2 70.6,55.2 75.5,55.2 
					75.5,56.2 71.8,56.2 71.8,59 75.3,59 				"/>
				<g id="Group_1_" transform="translate(60.136364, 22.909091)">
					<path id="Shape_4_" class="st3" d="M19.2,40.4c0.3,0.1,0.8,0.1,1.1,0.1c2.5,0,3.8-1.4,3.8-3.8c0-2.1-1.1-3.4-3.6-3.4
						c-0.6,0-1,0.1-1.3,0.1V40.4z M18,32.4c0.7-0.1,1.5-0.2,2.5-0.2c1.7,0,2.9,0.4,3.6,1.1c0.8,0.8,1.2,1.8,1.2,3.2
						c0,1.4-0.5,2.7-1.3,3.5c-0.9,0.9-2.2,1.3-4,1.3c-0.9,0-1.5,0-2.1-0.1L18,32.4L18,32.4z"/>
					<path id="Path_10_" class="st3" d="M27.6,39.9c0.5,0.3,1.2,0.6,2.1,0.6c1.1,0,1.9-0.7,1.9-1.5s-0.5-1.3-1.7-1.8
						c-1.4-0.5-2.4-1.2-2.4-2.6c0-1.4,1.1-2.5,3-2.5c1,0,1.6,0.2,2,0.5l-0.3,1c-0.3-0.2-0.9-0.4-1.7-0.4c-1.2,0-1.7,0.8-1.7,1.3
						c0,0.9,0.6,1.2,1.8,1.7c1.5,0.6,2.3,1.3,2.3,2.7c0,1.4-1,2.6-3.1,2.6c-0.9,0-1.8-0.3-2.3-0.6L27.6,39.9z"/>
				</g>
				<polygon id="Path_11_" class="st3" points="96.7,55.2 96.7,59 101.1,59 101.1,55.2 102.2,55.2 102.2,64.2 101.1,64.2 101.1,60 
					96.7,60 96.7,64.2 95.5,64.2 95.5,55.2 				"/>
				<rect id="Rectangle_1_" x="105.2" y="55.2" class="st3" width="1.1" height="9"/>
				<polygon id="Path_12_" class="st3" points="109.3,55.2 114.1,55.2 114.1,56.2 110.4,56.2 110.4,59.2 113.8,59.2 113.8,60.2 
					110.4,60.2 110.4,64.2 109.3,64.2 				"/>
				<polygon id="Path_13_" class="st3" points="115.7,55.2 115.7,56.2 118.4,56.2 118.4,64.2 119.6,64.2 119.6,56.2 122.3,56.2 
					122.3,55.2 				"/>
			</g>
		</g>
	</g>
</g>
</svg>
