<svg width="240" height="139" viewBox="0 0 240 139" fill="none" xmlns="http://www.w3.org/2000/svg">
<g clip-path="url(#clip0_892_15003)">
<path d="M201.431 14.7248C202.979 25.6692 195.581 23.6076 190.186 22.7614C188.9 22.5594 186.544 24.288 185.732 24.7497C185.276 23.1288 185.249 23.5353 184.046 22.1805C184.694 23.9634 182.699 24.7578 183.426 25.8002C181.62 25.6717 180.821 21.8268 182.441 13.4427C183.155 9.75344 185.014 4.09929 192.627 5.34868C200.875 6.70293 200.947 11.2978 201.431 14.7248Z" fill="#2F2E41"/>
<path d="M190.513 22.7722C194.281 22.7722 197.336 19.7174 197.336 15.9491C197.336 12.1808 194.281 9.12598 190.513 9.12598C186.744 9.12598 183.689 12.1808 183.689 15.9491C183.689 19.7174 186.744 22.7722 190.513 22.7722Z" fill="#A0616A"/>
<path d="M181.33 13.5134L184.598 14.0129C186.04 13.1101 186.589 11.7705 186.657 10.1958L186.329 14.2773L187.891 14.516C188.91 13.8358 189.366 13.0991 189.092 12.2894L188.9 14.6703C193.064 16.1705 197.1 17.2769 200.508 16.4442C200.683 15.2954 200.631 14.1233 200.354 12.9948C200.076 11.8663 199.579 10.8035 198.891 9.86705C198.203 8.93061 197.337 8.13889 196.343 7.53709C195.349 6.93528 194.246 6.53518 193.097 6.35962L191.415 6.10254C190.266 5.92698 189.094 5.97941 187.965 6.25683C186.837 6.53425 185.774 7.03123 184.838 7.71939C183.901 8.40755 183.109 9.27342 182.508 10.2676C181.906 11.2617 181.506 12.3646 181.33 13.5134Z" fill="#2F2E41"/>
<path d="M170.337 58.4252H13.7494C12.7802 58.4241 11.851 58.0386 11.1657 57.3533C10.4804 56.668 10.0949 55.7388 10.0938 54.7696V22.3412C10.0949 21.372 10.4804 20.4428 11.1657 19.7575C11.851 19.0722 12.7802 18.6867 13.7494 18.6855H170.337C171.306 18.6867 172.236 19.0722 172.921 19.7575C173.606 20.4428 173.992 21.372 173.993 22.3412V54.7696C173.992 55.7388 173.606 56.668 172.921 57.3533C172.236 58.0386 171.306 58.4241 170.337 58.4252Z" fill="#E6E6E6"/>
<path d="M159.769 55.9595H16.2162C15.247 55.9584 14.3178 55.5729 13.6325 54.8875C12.9472 54.2022 12.5617 53.273 12.5605 52.3039V24.809C12.5617 23.8398 12.9472 22.9106 13.6325 22.2253C14.3178 21.5399 15.247 21.1544 16.2162 21.1533H167.872C168.841 21.1544 169.77 21.5399 170.455 22.2253C171.141 22.9106 171.526 23.8398 171.527 24.809V44.201C171.524 47.3184 170.284 50.3072 168.08 52.5116C165.875 54.716 162.886 55.956 159.769 55.9595Z" fill="white"/>
<path d="M140.837 33.618H97.1186C96.8685 33.618 96.6287 33.5187 96.4519 33.3419C96.2751 33.1651 96.1758 32.9253 96.1758 32.6752C96.1758 32.4252 96.2751 32.1854 96.4519 32.0086C96.6287 31.8317 96.8685 31.7324 97.1186 31.7324H140.837C141.087 31.7324 141.327 31.8317 141.504 32.0086C141.681 32.1854 141.78 32.4252 141.78 32.6752C141.78 32.9253 141.681 33.1651 141.504 33.3419C141.327 33.5187 141.087 33.618 140.837 33.618Z" fill="#3931D8"/>
<path d="M151.902 39.2147H86.0522C85.8021 39.2147 85.5623 39.1154 85.3855 38.9386C85.2087 38.7617 85.1094 38.5219 85.1094 38.2719C85.1094 38.0218 85.2087 37.782 85.3855 37.6052C85.5623 37.4284 85.8021 37.3291 86.0522 37.3291H151.902C152.152 37.3291 152.392 37.4284 152.569 37.6052C152.745 37.782 152.845 38.0218 152.845 38.2719C152.845 38.5219 152.745 38.7617 152.569 38.9386C152.392 39.1154 152.152 39.2147 151.902 39.2147Z" fill="#E6E6E6"/>
<path d="M151.902 45.3807H86.0522C85.8021 45.3807 85.5623 45.2814 85.3855 45.1046C85.2087 44.9278 85.1094 44.688 85.1094 44.4379C85.1094 44.1879 85.2087 43.9481 85.3855 43.7713C85.5623 43.5944 85.8021 43.4951 86.0522 43.4951H151.902C152.152 43.4951 152.392 43.5944 152.569 43.7713C152.745 43.9481 152.845 44.1879 152.845 44.4379C152.845 44.688 152.745 44.9278 152.569 45.1046C152.392 45.2814 152.152 45.3807 151.902 45.3807Z" fill="#E6E6E6"/>
<path d="M96.5372 24.0946H96V3.39941H134.858V3.93665H96.5372V24.0946Z" fill="#3F3D56"/>
<path d="M151.289 0.000976562H137.053C136.126 0.000976562 135.238 0.368888 134.583 1.02377C133.928 1.67866 133.561 2.56687 133.561 3.49302C133.561 4.41917 133.928 5.30738 134.583 5.96226C135.238 6.61715 136.126 6.98506 137.053 6.98506H151.289C152.216 6.98506 153.104 6.61715 153.759 5.96226C154.414 5.30738 154.781 4.41917 154.781 3.49302C154.781 2.56687 154.414 1.67866 153.759 1.02377C153.104 0.368888 152.216 0.000976563 151.289 0.000976562Z" fill="#3931D8"/>
<path d="M95.9569 27.6092C97.7292 27.6092 99.1658 26.1725 99.1658 24.4003C99.1658 22.6281 97.7292 21.1914 95.9569 21.1914C94.1847 21.1914 92.748 22.6281 92.748 24.4003C92.748 26.1725 94.1847 27.6092 95.9569 27.6092Z" fill="#E6E6E6"/>
<path d="M212.204 133.018H209.239L207.828 121.582H212.204V133.018Z" fill="#A0616A"/>
<path d="M213.77 138.155H211.643L211.264 136.147L210.292 138.155H204.653C204.382 138.155 204.119 138.068 203.901 137.908C203.683 137.748 203.523 137.522 203.442 137.264C203.362 137.006 203.366 136.729 203.454 136.474C203.542 136.218 203.71 135.997 203.932 135.844L208.436 132.734V130.704L213.172 130.987L213.77 138.155Z" fill="#2F2E41"/>
<path d="M191.79 133.018H188.825L187.414 121.582H191.79V133.018Z" fill="#A0616A"/>
<path d="M193.354 138.155H191.227L190.848 136.147L189.876 138.155H184.236C183.966 138.155 183.703 138.068 183.485 137.908C183.267 137.748 183.107 137.522 183.026 137.264C182.946 137.006 182.95 136.729 183.038 136.474C183.126 136.218 183.294 135.997 183.516 135.844L188.02 132.734V130.704L192.756 130.987L193.354 138.155Z" fill="#2F2E41"/>
<path d="M219.856 66.5638C220.065 66.2708 220.207 65.9356 220.271 65.5819C220.336 65.2282 220.323 64.8646 220.232 64.5166C220.141 64.1687 219.975 63.8448 219.746 63.568C219.516 63.2912 219.229 63.068 218.904 62.9142L211.676 41.7598L207.369 44.0201L215.531 64.2361C215.309 64.7994 215.301 65.4246 215.509 65.9931C215.717 66.5617 216.127 67.0343 216.66 67.3212C217.193 67.6081 217.813 67.6895 218.402 67.5499C218.991 67.4103 219.509 67.0595 219.856 66.5638Z" fill="#A0616A"/>
<path d="M174.649 76.0074C174.993 75.9045 175.311 75.7274 175.58 75.4884C175.849 75.2494 176.062 74.9545 176.204 74.6242C176.347 74.294 176.415 73.9366 176.404 73.5771C176.394 73.2177 176.304 72.8649 176.142 72.5438L183.455 51.4184L178.669 50.5518L172.67 71.5116C172.149 71.8191 171.758 72.3073 171.572 72.8835C171.387 73.4598 171.419 74.0842 171.663 74.6383C171.907 75.1925 172.345 75.638 172.896 75.8903C173.446 76.1426 174.07 76.1842 174.649 76.0074Z" fill="#A0616A"/>
<path d="M186.182 63.394C186.182 63.394 205.252 58.5253 204.448 60.1706C204.448 60.1706 210.336 58.3483 211.154 70.4974L210.895 94.8224L211.959 113.813C211.959 113.813 211.31 115.358 212.038 115.223C212.765 115.088 212.157 117.356 212.157 117.356C212.157 117.356 211.544 119.77 212.289 119.712C213.034 119.655 212.497 123.415 212.497 123.415H207.662L198.397 81.7798L194.24 96.9714C194.24 96.9714 194.469 98.5994 194.081 98.6509C193.693 98.7023 193.965 99.8727 193.965 99.8727L193.82 101.411L191.813 122.609L187.246 122.878C187.246 122.878 187.211 122.413 187.246 121.266C187.273 120.415 187.535 119.054 186.844 117.932C186.077 116.686 185.631 115.245 186.525 113.658C187.144 112.559 186.34 111.046 186.244 109.616C185.641 100.593 184.992 88.5513 185.011 78.7101C185.012 78.3174 184.398 77.3356 185.016 77.5429C185.635 77.7501 185.025 76.6571 185.031 76.2225C185.043 75.4166 185.875 74.0114 185.083 73.8661C184.292 73.7208 185.108 73.0936 185.123 72.7166C185.279 68.7371 185.609 65.4604 186.182 63.394Z" fill="#2F2E41"/>
<path d="M194.778 23.6377L186.988 24.4436L186.234 28.0755L178.84 32.5916L181.398 39.5097C181.398 39.5097 179.32 46.5152 185.194 49.325L187.257 55.3347L186.53 59.6041L186.329 60.7891C186.844 61.7461 186.935 62.4494 186.027 62.5578L185.735 64.2771C184.435 65.0297 184.479 66.3675 185.108 67.9598L211.164 70.646C212.236 67.1461 206.452 55.5902 203.374 54.5288L203.775 37.2642L204.439 25.9059L195.575 26.7118L194.778 23.6377Z" fill="#3F3D56"/>
<path d="M202.41 26.4172C202.772 26.1557 203.188 25.9793 203.628 25.9012C204.068 25.8231 204.52 25.8453 204.949 25.9662C205.379 26.0871 205.776 26.3035 206.111 26.5994C206.445 26.8952 206.709 27.2628 206.881 27.6746L211.517 38.7375C212.393 39.0544 213.834 41.7515 213.312 42.4425C213.323 43.1731 213.07 42.6424 213.778 43.6562C214.584 43.7134 214.794 44.0526 214.238 44.7546L214.118 45.6659L214.446 45.7278C215.325 45.7592 215.37 46.0866 214.822 46.6247C215.004 46.734 215.143 46.9016 215.218 47.1003C215.293 47.2989 215.298 47.517 215.233 47.719L214.646 49.5458L210.079 51.6948L202.567 37.6073L201.355 29.8188C201.138 29.214 201.124 28.5553 201.315 27.9419C201.505 27.3285 201.89 26.7934 202.41 26.4172Z" fill="#3F3D56"/>
<path d="M181.591 32.897C181.181 32.5418 180.673 32.3174 180.135 32.2528C179.596 32.1881 179.05 32.2862 178.567 32.5343C178.084 32.7825 177.687 33.1693 177.425 33.6452C177.164 34.121 177.051 34.6641 177.101 35.2046C177.463 39.113 177.848 43.2717 177.848 43.2717L177.217 54.1028L182.958 55.336L183.179 53.7829L183.764 53.4557L183.354 52.5573C183.458 52.5674 183.562 52.5517 183.658 52.5116C183.754 52.4716 183.838 52.4083 183.904 52.3276C183.969 52.2469 184.014 52.1513 184.033 52.0492C184.053 51.9471 184.046 51.8418 184.015 51.7426L183.64 50.5521C183.699 50.5999 183.772 50.6274 183.848 50.6303C183.923 50.6333 183.998 50.6116 184.06 50.5686C184.123 50.5256 184.17 50.4635 184.194 50.3916C184.218 50.3198 184.218 50.2421 184.194 50.1701L183.846 49.1136L185.369 38.4366L182.081 33.4556C181.944 33.2478 181.779 33.0599 181.591 32.897Z" fill="#3F3D56"/>
<path d="M115.877 53.2695H115.34V73.9647H154.198V73.4275H115.877V53.2695Z" fill="#3F3D56"/>
<path d="M174.121 73.8709C174.12 72.9451 173.752 72.0574 173.098 71.4027C172.443 70.748 171.555 70.3798 170.629 70.3789H156.392C155.466 70.3789 154.578 70.7468 153.923 71.4017C153.268 72.0566 152.9 72.9448 152.9 73.8709C152.9 74.7971 153.268 75.6853 153.923 76.3402C154.578 76.9951 155.466 77.363 156.392 77.363H170.629C171.555 77.3621 172.443 76.9939 173.098 76.3392C173.752 75.6845 174.12 74.7968 174.121 73.8709Z" fill="#3931D8"/>
<path d="M115.836 55.2772C117.608 55.2772 119.045 53.8405 119.045 52.0683C119.045 50.296 117.608 48.8594 115.836 48.8594C114.064 48.8594 112.627 50.296 112.627 52.0683C112.627 53.8405 114.064 55.2772 115.836 55.2772Z" fill="#E6E6E6"/>
<path d="M58.2443 53.5381H58.7815V74.2333H19.9238V73.696H58.2443V53.5381Z" fill="#3F3D56"/>
<path d="M3.49205 77.6306H17.7289C18.655 77.6306 19.5432 77.2627 20.1981 76.6078C20.853 75.9529 21.2209 75.0647 21.2209 74.1385C21.2209 73.2124 20.853 72.3242 20.1981 71.6693C19.5432 71.0144 18.655 70.6465 17.7289 70.6465H3.49205C2.5659 70.6465 1.67769 71.0144 1.0228 71.6693C0.367913 72.3242 0 73.2124 0 74.1385C0 75.0647 0.367913 75.9529 1.0228 76.6078C1.67769 77.2627 2.5659 77.6306 3.49205 77.6306Z" fill="#3931D8"/>
<path d="M58.8886 55.0975C60.6608 55.0975 62.0975 53.6608 62.0975 51.8886C62.0975 50.1164 60.6608 48.6797 58.8886 48.6797C57.1164 48.6797 55.6797 50.1164 55.6797 51.8886C55.6797 53.6608 57.1164 55.0975 58.8886 55.0975Z" fill="#E6E6E6"/>
<path d="M230.735 138.431H221.82L221.782 138.362C221.668 138.155 221.558 137.936 221.455 137.711C220.537 135.745 220.149 133.497 219.806 131.513L219.549 130.018C219.517 129.837 219.541 129.65 219.616 129.483C219.691 129.315 219.815 129.174 219.971 129.077C220.127 128.98 220.309 128.931 220.492 128.938C220.676 128.945 220.853 129.006 221.002 129.114C222.357 130.1 223.712 131.085 225.068 132.069C225.581 132.443 226.167 132.875 226.729 133.342C226.783 133.079 226.84 132.815 226.896 132.555C226.935 132.375 227.027 132.211 227.16 132.084C227.293 131.957 227.461 131.872 227.642 131.841C227.823 131.809 228.009 131.833 228.177 131.908C228.345 131.983 228.486 132.107 228.584 132.263L229.627 133.939C230.387 135.163 231.059 136.368 230.922 137.669C230.923 137.685 230.921 137.701 230.918 137.716C230.891 137.93 230.84 138.14 230.767 138.342L230.735 138.431Z" fill="#F0F0F0"/>
<path d="M239.682 138.626L154.971 138.709C154.886 138.708 154.805 138.674 154.745 138.614C154.686 138.554 154.652 138.473 154.652 138.389C154.652 138.304 154.686 138.223 154.745 138.163C154.805 138.103 154.886 138.069 154.971 138.069L239.682 137.986C239.766 137.987 239.847 138.021 239.907 138.081C239.966 138.141 240 138.222 240 138.306C240 138.391 239.966 138.472 239.907 138.532C239.847 138.592 239.766 138.626 239.682 138.626Z" fill="#CACACA"/>
<path d="M27.9652 48.1755C33.306 48.1755 37.6355 43.846 37.6355 38.5052C37.6355 33.1645 33.306 28.835 27.9652 28.835C22.6245 28.835 18.2949 33.1645 18.2949 38.5052C18.2949 43.846 22.6245 48.1755 27.9652 48.1755Z" fill="#F2F2F2"/>
<path d="M64.6046 33.5672H58.224C57.974 33.5672 57.7342 33.4679 57.5574 33.2911C57.3806 33.1143 57.2813 32.8745 57.2812 32.6244C57.2813 32.3744 57.3806 32.1346 57.5574 31.9578C57.7342 31.781 57.974 31.6816 58.224 31.6816H64.6046C64.8547 31.6816 65.0945 31.781 65.2713 31.9578C65.4481 32.1346 65.5474 32.3744 65.5474 32.6244C65.5474 32.8745 65.4481 33.1143 65.2713 33.2911C65.0945 33.4679 64.8547 33.5672 64.6046 33.5672Z" fill="#3931D8"/>
<path d="M75.6694 39.1629H47.1576C46.9076 39.1629 46.6678 39.0636 46.491 38.8868C46.3142 38.71 46.2148 38.4702 46.2148 38.2201C46.2148 37.9701 46.3142 37.7303 46.491 37.5535C46.6678 37.3767 46.9076 37.2773 47.1576 37.2773H75.6694C75.9194 37.2773 76.1592 37.3767 76.336 37.5535C76.5128 37.7303 76.6122 37.9701 76.6122 38.2201C76.6122 38.4702 76.5128 38.71 76.336 38.8868C76.1592 39.0636 75.9194 39.1629 75.6694 39.1629Z" fill="#E6E6E6"/>
<path d="M75.6694 45.3299H47.1576C46.9076 45.3299 46.6678 45.2306 46.491 45.0538C46.3142 44.877 46.2148 44.6372 46.2148 44.3871C46.2148 44.1371 46.3142 43.8973 46.491 43.7205C46.6678 43.5437 46.9076 43.4443 47.1576 43.4443H75.6694C75.9194 43.4443 76.1592 43.5437 76.336 43.7205C76.5128 43.8973 76.6122 44.1371 76.6122 44.3871C76.6122 44.6372 76.5128 44.877 76.336 45.0538C76.1592 45.2306 75.9194 45.3299 75.6694 45.3299Z" fill="#E6E6E6"/>
</g>
<defs>
<clipPath id="clip0_892_15003">
<rect width="240" height="138.707" fill="white"/>
</clipPath>
</defs>
</svg>
