<svg width="70" height="48" viewBox="0 0 70 48" fill="none" xmlns="http://www.w3.org/2000/svg">
<g clip-path="url(#clip0_1717_268)">
<path fill-rule="evenodd" clip-rule="evenodd" d="M0 43.7889V3.23549C0 3.23549 0.510315 0 4.7959 0C9.0815 0 66.7348 0.108104 66.7348 0.108104C66.7348 0.108104 70 0.108106 70 4.85367C70 9.59919 70 44.7592 70 44.7592C70 44.7592 69.6937 47.9949 65.7139 47.9949C61.7345 47.9949 4.08179 47.9949 4.08179 47.9949C4.08179 47.9949 0.612218 48.3187 0 43.7889Z" fill="#8D1238"/>
<path fill-rule="evenodd" clip-rule="evenodd" d="M67.9077 28.2486L67.9094 21.2739H49.5026C49.5026 21.2739 49.1793 21.3462 49.1793 20.9865C49.1793 20.6268 49.1816 16.9958 49.1816 16.9958C49.1816 16.9958 49.1075 16.6977 49.6102 16.6977C50.1133 16.6977 66.2913 16.6866 66.2913 16.6866C66.2913 16.6866 67.8014 16.7441 67.8014 15.0545C67.8014 13.3643 67.8014 10.0931 67.8014 10.0931C67.8014 10.0931 67.6208 3.62203 60.1437 2.65137C58.3827 2.65137 50.0417 2.65137 50.0417 2.65137C50.0417 2.65137 42.0354 2.65963 41.4961 10.8203C41.4961 18.2266 41.5214 21.1657 41.5214 21.1657C41.5214 21.1657 41.9529 27.8882 49.574 28.2541L67.9077 28.2486Z" fill="white"/>
<path fill-rule="evenodd" clip-rule="evenodd" d="M49.4214 9.45508H60.045L60.0466 11.558C60.0466 11.558 60.1527 11.7738 59.7216 11.7738C59.2897 11.7738 49.0808 11.7738 49.0808 11.7738L49.0707 9.8325C49.0707 9.8325 49.0172 9.45508 49.4214 9.45508Z" fill="#8D1238"/>
<path fill-rule="evenodd" clip-rule="evenodd" d="M16.1759 42.0419L15.5827 44.3291L8.62611 44.319C8.62611 44.319 6.54998 44.3459 6.49609 42.0271C7.00835 39.7353 7.73645 37.3622 7.73645 37.3622C7.73645 37.3622 8.22159 35.421 10.6484 35.4475C12.9133 35.4732 15.3668 35.4661 15.3668 35.4661C15.3668 35.4661 17.5112 35.6134 17.3085 37.6047C17.1466 39.196 16.985 39.3846 16.985 39.3846C16.985 39.3846 17.0656 40.3823 15.4478 40.347L10.028 40.3284C10.028 40.3284 9.65063 40.2741 9.48863 40.6787C9.3271 41.0833 9.13837 41.5417 9.13837 41.5417C9.13837 41.5417 9.03068 42.0221 9.43521 42.049L16.1759 42.0419Z" fill="white"/>
<path fill-rule="evenodd" clip-rule="evenodd" d="M10.6218 37.7939H14.4505C14.4505 37.7939 14.7206 37.7396 14.6664 38.0364C14.6125 38.3332 14.7473 38.7912 14.1002 38.7912C13.4532 38.7912 10.2715 38.8064 10.2715 38.8064C10.2715 38.8064 9.94794 38.8452 10.0285 38.5757C10.1095 38.3054 10.1905 37.7666 10.6218 37.7939Z" fill="#8D1238"/>
<path fill-rule="evenodd" clip-rule="evenodd" d="M21.9473 44.3214L24.4009 35.639C24.4009 35.639 25.0208 33.7243 26.6924 33.7243C27.0698 33.6974 27.4744 33.7513 27.4744 33.7513L27.0698 35.5577L29.0921 35.5779L28.4717 38.1076L26.7196 38.0925C26.7196 38.0925 26.396 38.0386 26.2344 38.497C26.0186 39.1079 24.5353 44.3328 24.5353 44.3328L21.9473 44.3214Z" fill="white"/>
<path fill-rule="evenodd" clip-rule="evenodd" d="M16.3105 44.3353L19.5461 32.9838C19.5461 32.9838 20.328 31.2852 22.0539 31.2852C23.7793 31.2852 24.6423 31.2948 24.6423 31.2948L24.0758 33.5787L22.7277 33.5766C22.7277 33.5766 21.9729 33.4962 21.8109 34.0081C21.6494 34.5205 21.5412 34.8981 21.5412 34.8981C21.5412 34.8981 21.272 35.5182 21.8109 35.5182C22.3507 35.5182 23.5635 35.5283 23.5635 35.5283L22.8897 37.9987H21.4602C21.4602 37.9987 20.7325 37.8858 20.5439 38.5653C20.3198 39.3715 18.9257 44.3354 18.9257 44.3354L16.3105 44.3353Z" fill="white"/>
<path fill-rule="evenodd" clip-rule="evenodd" d="M26.7734 46.6109L29.4157 37.3084C29.4157 37.3084 30.0632 35.502 31.9503 35.502C33.8377 35.502 37.0459 35.502 37.0459 35.502C37.0459 35.502 39.203 35.5832 38.9606 37.9016L37.8012 42.3236C37.8012 42.3236 37.3966 44.3191 34.7006 44.3191C32.0045 44.3191 30.9258 44.3191 30.9258 44.3191L31.5733 41.7843L34.7276 41.8083C34.7276 41.8083 35.3746 41.9191 35.5093 41.2994C35.7253 40.5441 36.3185 38.3874 36.3185 38.3874C36.3185 38.3874 36.5609 37.9828 35.9943 37.9828C35.4285 37.9828 32.4087 37.9828 32.4087 37.9828C32.4087 37.9828 31.8968 37.8746 31.7348 38.4139C31.5457 39.0345 29.3623 46.6375 29.3623 46.6375L26.7734 46.6109Z" fill="white"/>
<path fill-rule="evenodd" clip-rule="evenodd" d="M38.8783 41.3797L39.903 37.6048C39.903 37.6048 40.4962 35.502 42.4643 35.502C44.4328 35.502 47.5608 35.502 47.5608 35.502C47.5608 35.502 50.0682 35.6636 49.5832 37.9289C49.0978 40.1938 48.4503 42.2967 48.4503 42.2967C48.4503 42.2967 47.9919 44.3191 45.4845 44.3191C42.9766 44.3191 41.1437 44.3191 41.1437 44.3191C41.1437 44.3191 38.2582 44.3191 38.8783 41.3797Z" fill="white"/>
<path fill-rule="evenodd" clip-rule="evenodd" d="M43.0317 37.9551L46.4286 37.9736C46.4286 37.9736 47.0222 37.8742 46.941 38.2788C46.8606 38.6834 46.1323 41.2177 46.1323 41.2177C46.1323 41.2177 45.9706 41.6492 45.5121 41.6762C44.8642 41.7141 41.7915 41.6762 41.7915 41.6762C41.7915 41.6762 41.3869 41.7035 41.5216 41.2716C41.7073 40.6776 42.3842 38.2519 42.3842 38.2519C42.3842 38.2519 42.4112 37.9551 43.0317 37.9551Z" fill="#8D1238"/>
<path fill-rule="evenodd" clip-rule="evenodd" d="M49.0996 44.3321L49.6658 41.9292L55.7861 41.9187C55.7861 41.9187 56.3254 42.0269 56.4606 41.4333C56.5144 41.0022 56.5144 40.9517 56.5144 40.9517L52.955 40.9483C52.955 40.9483 50.1778 41.083 50.3398 38.4405C50.5015 35.7979 52.5778 35.4473 53.2787 35.4473C53.9797 35.4473 60.1004 35.4473 60.1004 35.4473L59.4803 37.7395H53.6559C53.6559 37.7395 53.2249 37.6856 53.144 38.198C53.144 38.198 52.8472 38.7099 53.3865 38.7373C53.9258 38.7638 56.9998 38.7373 56.9998 38.7373C56.9998 38.7373 59.3995 38.656 59.2647 40.9748C59.1296 43.294 57.8317 44.3187 56.2955 44.3187L49.0996 44.3321Z" fill="white"/>
</g>
<defs>
<clipPath id="clip0_1717_268">
<rect width="70" height="48" rx="4" fill="white"/>
</clipPath>
</defs>
</svg>
